<?xml version="1.0" encoding="iso-8859-1"?>
<!-- Generator: Adobe Illustrator 19.0.0, SVG Export Plug-In . SVG Version: 6.00 Build 0)  -->
<svg xmlns="http://www.w3.org/2000/svg" xmlns:xlink="http://www.w3.org/1999/xlink" version="1.1" id="Layer_1" x="0px" y="0px" viewBox="0 0 512 512" style="enable-background:new 0 0 512 512;" xml:space="preserve">
<g>
	<g>
		<path d="M352.014,158.508V0H180.59v158.509c-26.456,23.133-42.226,55.444-44.157,90.513h-20.808v31.391h22.823    c5.299,28.518,19.958,54.369,42.141,73.766V512h171.425V354.179c28.288-24.735,44.361-59.962,44.361-97.836    C396.375,218.471,380.302,183.243,352.014,158.508z M320.623,31.391V138.09c-0.567-0.262-1.14-0.507-1.71-0.762    c-0.307-0.136-0.611-0.275-0.919-0.409c-1.42-0.616-2.849-1.208-4.288-1.771c-0.293-0.114-0.589-0.224-0.882-0.336    c-1.272-0.488-2.552-0.955-3.838-1.402c-0.275-0.095-0.549-0.196-0.826-0.289c-1.47-0.499-2.951-0.97-4.439-1.416    c-0.319-0.095-0.64-0.186-0.961-0.279c-1.33-0.387-2.667-0.753-4.011-1.098c-0.239-0.061-0.475-0.127-0.714-0.186    c-1.513-0.378-3.036-0.724-4.564-1.047c-0.345-0.073-0.692-0.141-1.039-0.211c-1.397-0.284-2.8-0.547-4.21-0.785    c-0.187-0.031-0.375-0.067-0.562-0.098c-1.55-0.254-3.109-0.474-4.672-0.673c-0.37-0.047-0.741-0.09-1.111-0.134    c-1.481-0.175-2.965-0.331-4.456-0.455c-0.118-0.01-0.234-0.023-0.353-0.033c-1.584-0.129-3.176-0.22-4.771-0.291    c-0.384-0.018-0.769-0.032-1.154-0.046c-1.609-0.059-3.223-0.098-4.842-0.098c-1.62,0-3.232,0.04-4.842,0.098    c-0.385,0.014-0.769,0.028-1.154,0.046c-1.596,0.071-3.187,0.162-4.771,0.291c-0.117,0.009-0.234,0.023-0.353,0.033    c-1.492,0.125-2.976,0.28-4.458,0.455c-0.37,0.044-0.742,0.087-1.111,0.134c-1.563,0.198-3.121,0.419-4.672,0.673    c-0.187,0.031-0.375,0.067-0.562,0.098c-1.409,0.238-2.813,0.501-4.21,0.785c-0.346,0.07-0.693,0.138-1.038,0.211    c-1.53,0.323-3.051,0.67-4.565,1.047c-0.239,0.06-0.475,0.126-0.714,0.186c-1.344,0.344-2.681,0.711-4.011,1.098    c-0.32,0.093-0.641,0.183-0.961,0.279c-1.489,0.446-2.969,0.917-4.439,1.416c-0.276,0.094-0.549,0.194-0.826,0.289    c-1.287,0.447-2.566,0.914-3.838,1.402c-0.294,0.112-0.589,0.222-0.882,0.336c-1.44,0.565-2.868,1.155-4.288,1.771    c-0.308,0.134-0.612,0.273-0.919,0.409c-0.57,0.253-1.143,0.5-1.71,0.762V31.391H320.623z M320.624,480.609L320.624,480.609    H211.981V374.598c0.576,0.266,1.158,0.516,1.738,0.773c0.293,0.13,0.585,0.263,0.879,0.391c1.424,0.618,2.86,1.212,4.305,1.779    c0.29,0.113,0.582,0.221,0.873,0.333c1.272,0.488,2.552,0.956,3.839,1.402c0.278,0.096,0.555,0.198,0.833,0.292    c1.467,0.497,2.943,0.967,4.429,1.412c0.325,0.097,0.653,0.19,0.98,0.285c1.319,0.383,2.644,0.747,3.977,1.088    c0.248,0.064,0.495,0.132,0.743,0.194c1.507,0.377,3.024,0.721,4.547,1.044c0.354,0.074,0.707,0.144,1.062,0.216    c1.385,0.281,2.776,0.542,4.173,0.777c0.198,0.034,0.394,0.072,0.593,0.105c1.546,0.253,3.099,0.473,4.657,0.671    c0.375,0.047,0.749,0.091,1.124,0.135c1.476,0.175,2.957,0.33,4.445,0.454c0.12,0.01,0.24,0.024,0.359,0.034    c1.583,0.129,3.173,0.22,4.767,0.291c0.385,0.018,0.771,0.032,1.157,0.046c1.609,0.059,3.221,0.098,4.841,0.098    c1.62,0,3.231-0.04,4.841-0.098c0.386-0.014,0.771-0.028,1.157-0.046c1.595-0.071,3.184-0.162,4.767-0.291    c0.12-0.009,0.24-0.023,0.359-0.034c1.488-0.125,2.969-0.279,4.445-0.454c0.375-0.044,0.75-0.088,1.124-0.135    c1.559-0.198,3.113-0.417,4.657-0.671c0.198-0.032,0.394-0.071,0.593-0.105c1.397-0.235,2.788-0.497,4.173-0.777    c0.354-0.071,0.708-0.141,1.062-0.216c1.523-0.322,3.04-0.668,4.546-1.044c0.248-0.062,0.495-0.131,0.743-0.194    c1.332-0.341,2.658-0.705,3.977-1.088c0.326-0.095,0.654-0.187,0.98-0.285c1.485-0.445,2.962-0.915,4.429-1.412    c0.278-0.094,0.555-0.196,0.833-0.292c1.287-0.447,2.567-0.914,3.839-1.402c0.291-0.111,0.583-0.219,0.873-0.333    c1.445-0.567,2.881-1.159,4.306-1.779c0.294-0.128,0.585-0.26,0.878-0.391c0.58-0.257,1.162-0.508,1.739-0.773V480.609z     M326.703,334.382c-17.421,13.505-38.308,20.644-60.401,20.644c-22.093,0-42.979-7.138-60.401-20.644    c-24.329-18.862-38.282-47.306-38.282-78.038s13.953-59.176,38.282-78.038c17.42-13.505,38.305-20.644,60.401-20.644    c22.095,0,42.98,7.138,60.401,20.644c24.329,18.862,38.282,47.306,38.282,78.038S351.032,315.52,326.703,334.382z"/>
	</g>
</g>
<g>
	<g>
		<polygon points="281.996,240.648 281.996,180.662 250.606,180.662 250.606,272.039 308.833,272.039 308.833,240.648   "/>
	</g>
</g>
<g>
	<g>
		<rect x="256.172" y="48.572" width="20.248" height="20.248"/>
	</g>
</g>
<g>
	<g>
		<rect x="256.172" y="88.251" width="20.248" height="20.248"/>
	</g>
</g>
<g>
</g>
<g>
</g>
<g>
</g>
<g>
</g>
<g>
</g>
<g>
</g>
<g>
</g>
<g>
</g>
<g>
</g>
<g>
</g>
<g>
</g>
<g>
</g>
<g>
</g>
<g>
</g>
<g>
</g>
</svg>
