<?xml version="1.0" encoding="iso-8859-1"?>
<!-- Generator: Adobe Illustrator 19.0.0, SVG Export Plug-In . SVG Version: 6.00 Build 0)  -->
<svg xmlns="http://www.w3.org/2000/svg" xmlns:xlink="http://www.w3.org/1999/xlink" version="1.1" id="Layer_1" x="0px" y="0px" viewBox="0 0 512.001 512.001" style="enable-background:new 0 0 512.001 512.001;" xml:space="preserve">
<g>
	<g>
		<path d="M489.555,358.47l-0.404-0.238l-70.814-36.175l18.822-35.523l-67.375-35.699l-19.356,36.531l-78.71-40.212v-30.471    c33.681-7.234,59.004-37.241,59.004-73.052c0-41.197-33.517-74.714-74.714-74.714c-41.197,0-74.714,33.517-74.714,74.714h31.433    c0-23.865,19.416-43.282,43.282-43.282c23.865,0,43.282,19.416,43.282,43.282c0,23.865-19.416,43.282-43.282,43.282h-15.702    l-0.019,60.242l-79.817,40.775l-19.655-37.094L73.44,286.535l19.121,36.087L23.269,358.02l-0.821,0.451    C4.551,369.004-3.807,389.543,1.652,409.58c5.46,20.04,23.083,33.504,43.854,33.504h420.988c20.771,0,38.395-13.465,43.854-33.504    C515.809,389.542,507.451,369.003,489.555,358.47z M382.841,293.326l11.825,6.266l-22.196,41.888l-11.825-6.266L382.841,293.326z     M127.759,293.326l22.196,41.888l-11.825,6.266l-22.196-41.888L127.759,293.326z M480.022,401.319    c-0.66,2.423-3.588,10.333-13.526,10.333H45.508c-9.939,0-12.866-7.909-13.526-10.334c-0.651-2.39-2.108-10.496,6.071-15.553    l69.229-35.366l17.79,33.574l67.375-35.699l-17.255-32.567l80.813-41.285l79.708,40.721l-17.556,33.13l67.375,35.699    l18.087-34.137l70.335,35.93C482.13,390.819,480.674,398.927,480.022,401.319z"/>
	</g>
</g>
<g>
</g>
<g>
</g>
<g>
</g>
<g>
</g>
<g>
</g>
<g>
</g>
<g>
</g>
<g>
</g>
<g>
</g>
<g>
</g>
<g>
</g>
<g>
</g>
<g>
</g>
<g>
</g>
<g>
</g>
</svg>
