<?xml version="1.0" encoding="iso-8859-1"?>
<!-- Generator: Adobe Illustrator 19.0.0, SVG Export Plug-In . SVG Version: 6.00 Build 0)  -->
<svg xmlns="http://www.w3.org/2000/svg" xmlns:xlink="http://www.w3.org/1999/xlink" version="1.1" id="Layer_1" x="0px" y="0px" viewBox="0 0 512 512" style="enable-background:new 0 0 512 512;" xml:space="preserve">
<g>
	<g>
		<path d="M364.221,197.171H346.73v-25.909H165.27v25.909H0V317.44H165.27v23.298H346.73V317.44h17.492H512V197.171H364.221z     M165.27,286.093H31.347v-57.575H165.27V286.093z M315.383,240.18h-33.479v31.347h33.479v37.863H196.617V202.609h118.765V240.18z     M379.913,270.401c0,8.652-7.039,15.692-15.692,15.692H346.73v-57.575h17.492c8.652,0,15.692,7.039,15.692,15.693V270.401z     M480.653,286.093h-72.094c1.743-4.911,2.701-10.191,2.701-15.692v-26.189c0-5.501-0.958-10.781-2.702-15.693h72.095V286.093z"/>
	</g>
</g>
<g>
	<g>
		<rect x="125.983" y="247.192" width="20.22" height="20.22"/>
	</g>
</g>
<g>
	<g>
		<rect x="88.367" y="247.192" width="20.22" height="20.22"/>
	</g>
</g>
<g>
</g>
<g>
</g>
<g>
</g>
<g>
</g>
<g>
</g>
<g>
</g>
<g>
</g>
<g>
</g>
<g>
</g>
<g>
</g>
<g>
</g>
<g>
</g>
<g>
</g>
<g>
</g>
<g>
</g>
</svg>
