<?xml version="1.0" encoding="iso-8859-1"?>
<!-- Generator: Adobe Illustrator 19.0.0, SVG Export Plug-In . SVG Version: 6.00 Build 0)  -->
<svg xmlns="http://www.w3.org/2000/svg" xmlns:xlink="http://www.w3.org/1999/xlink" version="1.1" id="Layer_1" x="0px" y="0px" viewBox="0 0 511.997 511.997" style="enable-background:new 0 0 511.997 511.997;" xml:space="preserve">
<g>
	<g>
		<path d="M434.952,153.723l-5.045-8.018l-9.445,0.732c-97.115,7.528-145.299,48.96-147.303,50.719l-5.334,4.685v9.492h-23.648    v-9.492l-5.334-4.685c-2.004-1.76-50.186-43.191-147.303-50.719l-9.445-0.732l-5.045,8.018    c-0.657,1.045-12.34,20.06-18.226,57.588H0v90.075h58.937c5.922,37.059,17.458,55.85,18.111,56.888l5.045,8.018l9.445-0.732    c97.116-7.528,145.299-48.96,147.303-50.72l5.334-4.685v-8.79h23.648v8.79l5.334,4.685c2.004,1.76,50.187,43.192,147.303,50.72    l9.445,0.732l5.045-8.018c0.653-1.037,12.19-19.829,18.111-56.888h58.937v-90.075h-58.819    C447.292,173.782,435.609,154.767,434.952,153.723z M55.488,255.99v0.017v14.004H31.375v-27.325h24.113V255.99z M212.8,221.698    l-27.996-4.99l-5.505,30.889l33.501,5.971v5.502l-33.4,5.953l5.505,30.889l27.895-4.971v4.291    c-13.223,9.141-50.789,31.229-113.073,38.054c-4.969-12.212-12.863-37.827-12.865-77.281v-0.015    c0.002-39.454,7.896-65.069,12.865-77.282c62.33,6.829,99.903,28.943,113.073,38.047V221.698z M267.824,269.988h-23.648v-27.28    h23.648V269.988z M425.138,256.004c-0.003,39.455-7.897,65.07-12.866,77.283c-62.33-6.829-99.903-28.945-113.073-38.049v-4.247    l27.616,4.922l5.505-30.889l-33.121-5.904v-5.602l33.223-5.922l-5.505-30.889l-27.718,4.94v-4.952    c13.06-9.134,50.237-31.145,113.071-37.991c4.968,12.212,12.864,37.827,12.866,77.283V256.004z M456.512,256.005v-0.017v-13.303    h24.113v27.326h-24.113V256.005z"/>
	</g>
</g>
<g>
</g>
<g>
</g>
<g>
</g>
<g>
</g>
<g>
</g>
<g>
</g>
<g>
</g>
<g>
</g>
<g>
</g>
<g>
</g>
<g>
</g>
<g>
</g>
<g>
</g>
<g>
</g>
<g>
</g>
</svg>
