<?xml version="1.0" encoding="iso-8859-1"?>
<!-- Generator: Adobe Illustrator 19.0.0, SVG Export Plug-In . SVG Version: 6.00 Build 0)  -->
<svg xmlns="http://www.w3.org/2000/svg" xmlns:xlink="http://www.w3.org/1999/xlink" version="1.1" id="Layer_1" x="0px" y="0px" viewBox="0 0 512 512" style="enable-background:new 0 0 512 512;" xml:space="preserve">
<g>
	<g>
		<path d="M333.242,113.619V95.873c5.412,2.344,10.886,4.965,16.422,7.924l14.73-27.556    C303.259,43.559,248.062,45.333,212.52,52.579c-38.705,7.889-63.044,23.724-64.062,24.395l17.192,26.091    c0.192-0.126,4.828-3.104,13.108-6.902v17.457H0l0.824,16.026v334.131h510.352V129.646L512,113.619H333.242z M210.004,85.235    c23.796-6.011,55.688-9.141,91.993-0.024v28.409h-91.993V85.235z M479.106,144.865l-4.949,96.27    c-0.884,17.208-14.522,30.834-31.48,31.94H304.952v-48.348h-97.904v48.348H69.324c-16.958-1.106-30.597-14.731-31.48-31.94    l-4.949-96.27H479.106z M420.563,304.402v71.692H91.437v-71.692H420.563z M238.294,273.075v-17.102h35.412v17.102H238.294z     M479.93,432.53H32.07V291.034c8.098,6.198,17.687,10.521,28.121,12.36V407.34h391.617V303.394    c10.434-1.839,20.023-6.162,28.121-12.36V432.53z"/>
	</g>
</g>
<g>
</g>
<g>
</g>
<g>
</g>
<g>
</g>
<g>
</g>
<g>
</g>
<g>
</g>
<g>
</g>
<g>
</g>
<g>
</g>
<g>
</g>
<g>
</g>
<g>
</g>
<g>
</g>
<g>
</g>
</svg>
