<?xml version="1.0" encoding="iso-8859-1"?>
<!-- Generator: Adobe Illustrator 19.0.0, SVG Export Plug-In . SVG Version: 6.00 Build 0)  -->
<svg xmlns="http://www.w3.org/2000/svg" xmlns:xlink="http://www.w3.org/1999/xlink" version="1.1" id="Layer_1" x="0px" y="0px" viewBox="0 0 512 512" style="enable-background:new 0 0 512 512;" xml:space="preserve">
<g>
	<g>
		<path d="M389.49,149.916h-9.452c-7.784-57.549-57.223-102.057-116.87-102.057h-14.337c-59.647,0-109.087,44.509-116.87,102.057    h-9.452C54.958,149.916,0,204.874,0,272.426v191.715h512V272.426C512,204.874,457.042,149.916,389.49,149.916z M248.831,79.632    h14.337c42.088,0,77.225,30.332,84.702,70.284H164.129C171.606,109.965,206.743,79.632,248.831,79.632z M31.774,432.367V373.82    c12.004,1.227,29.189,5.187,42.287,17.164c10.644,9.733,17.174,23.625,19.537,41.382H31.774z M386.386,432.368h-260.77    c-0.929-9.206-2.695-17.783-5.29-25.713h271.35C389.081,414.585,387.315,423.162,386.386,432.368z M480.226,432.368h-61.823v0    c2.363-17.757,8.892-31.649,19.537-41.382c13.097-11.978,30.283-15.937,42.287-17.164V432.368z M480.226,341.918    c-16.862,1.315-42.791,6.627-63.469,25.382c-2.633,2.388-5.099,4.916-7.4,7.579H102.643c-2.301-2.663-4.767-5.191-7.401-7.579    c-20.677-18.755-46.606-24.068-63.468-25.383v-69.491c0-50.032,40.704-90.736,90.736-90.736h8.378h250.225h8.378    c50.032,0,90.736,40.704,90.736,90.736V341.918z"/>
	</g>
</g>
<g>
	<g>
		<polygon points="122.557,245.209 122.557,276.982 328.082,276.982 328.082,307.029 359.856,307.029 359.856,276.982     389.443,276.982 389.443,245.209   "/>
	</g>
</g>
<g>
</g>
<g>
</g>
<g>
</g>
<g>
</g>
<g>
</g>
<g>
</g>
<g>
</g>
<g>
</g>
<g>
</g>
<g>
</g>
<g>
</g>
<g>
</g>
<g>
</g>
<g>
</g>
<g>
</g>
</svg>
