<?xml version="1.0" encoding="iso-8859-1"?>
<!-- Generator: Adobe Illustrator 19.0.0, SVG Export Plug-In . SVG Version: 6.00 Build 0)  -->
<svg xmlns="http://www.w3.org/2000/svg" xmlns:xlink="http://www.w3.org/1999/xlink" version="1.1" id="Layer_1" x="0px" y="0px" viewBox="0 0 512.001 512.001" style="enable-background:new 0 0 512.001 512.001;" xml:space="preserve">
<g>
	<g>
		<path d="M416.583,146.062V82.478h-24.624C384.415,35.778,343.825,0,295.03,0h-80.679c-48.795,0-89.384,35.778-96.929,82.478    H92.798v63.585H2.568l39.319,293.232c5.558,41.45,41.288,72.707,83.11,72.707h262.008c41.823,0,77.552-31.257,83.11-72.707    l39.318-293.232H416.583z M369.862,113.909h15.29v69.525h-15.29V113.909z M214.351,31.431h80.679    c31.399,0,57.789,21.795,64.876,51.047h-21.475v63.585H170.949V82.478h-21.475C156.562,53.226,182.952,31.431,214.351,31.431z     M124.228,113.909h15.29v69.525h-15.29V113.909z M387.004,480.569H124.996c-19.7,0-37.233-11.095-46.17-27.649h354.347    C424.237,469.474,406.705,480.569,387.004,480.569z M440.789,421.491H71.211L38.494,177.493h54.304v37.371h78.152v-37.371h167.481    v37.371h78.152v-37.371h56.923L440.789,421.491z"/>
	</g>
</g>
<g>
	<g>
		<path d="M198.334,231.25v77.878h112.715V231.25H198.334z M279.618,277.698h-49.854v-15.017h49.854V277.698z"/>
	</g>
</g>
<g>
</g>
<g>
</g>
<g>
</g>
<g>
</g>
<g>
</g>
<g>
</g>
<g>
</g>
<g>
</g>
<g>
</g>
<g>
</g>
<g>
</g>
<g>
</g>
<g>
</g>
<g>
</g>
<g>
</g>
</svg>
