<?xml version="1.0" encoding="iso-8859-1"?>
<!-- Generator: Adobe Illustrator 19.0.0, SVG Export Plug-In . SVG Version: 6.00 Build 0)  -->
<svg xmlns="http://www.w3.org/2000/svg" xmlns:xlink="http://www.w3.org/1999/xlink" version="1.1" id="Layer_1" x="0px" y="0px" viewBox="0 0 512.001 512.001" style="enable-background:new 0 0 512.001 512.001;" xml:space="preserve">
<g>
	<g>
		<path d="M482.273,302.076c-11.727,33.696-58.435,35.115-59.736,35.145h-15.883c-5.528-37.025-21.736-123.641-57.302-168.627    c-11.158-14.114-27.754-23.215-45.533-24.969c-17.419-1.724-34.29,3.528-47.503,14.775c-0.166,0.142-0.332,0.283-0.495,0.426    c-0.164-0.143-0.329-0.284-0.494-0.425c-13.214-11.246-30.079-16.49-47.503-14.776c-17.78,1.754-34.376,10.855-45.533,24.969    c-35.566,44.986-51.774,131.602-57.302,168.627H87.6c-42.299,0-57.985-34.7-58.631-36.178l0.044,0.102L0,313.354    c0.951,2.259,24.02,55.343,87.6,55.343h335.109l0.066-0.001c2.852-0.023,70.063-1.213,89.226-56.274L482.273,302.076z     M186.981,188.115c5.888-7.447,14.611-12.245,23.933-13.165c8.836-0.874,17.364,1.764,24.014,7.422    c2.405,2.046,4.44,4.389,6.049,6.964l4.623,7.397h20.445l4.623-7.397c1.609-2.575,3.644-4.918,6.05-6.965    c6.648-5.658,15.173-8.292,24.013-7.421c9.322,0.92,18.045,5.718,23.933,13.165c18.012,22.783,30.602,59.954,38.979,93.726    H147.983C156.356,248.085,168.945,210.927,186.981,188.115z M136.868,337.221c1.07-6.79,2.458-14.92,4.198-23.904h229.496    c1.742,8.984,3.132,17.114,4.205,23.904H136.868z"/>
	</g>
</g>
<g>
</g>
<g>
</g>
<g>
</g>
<g>
</g>
<g>
</g>
<g>
</g>
<g>
</g>
<g>
</g>
<g>
</g>
<g>
</g>
<g>
</g>
<g>
</g>
<g>
</g>
<g>
</g>
<g>
</g>
</svg>
