<?xml version="1.0" encoding="iso-8859-1"?>
<!-- Generator: Adobe Illustrator 19.0.0, SVG Export Plug-In . SVG Version: 6.00 Build 0)  -->
<svg xmlns="http://www.w3.org/2000/svg" xmlns:xlink="http://www.w3.org/1999/xlink" version="1.1" id="Layer_1" x="0px" y="0px" viewBox="0 0 512.001 512.001" style="enable-background:new 0 0 512.001 512.001;" xml:space="preserve">
<g>
	<g>
		<path d="M482.272,281.357c-11.727,33.696-58.434,35.114-59.735,35.145h-26.267c-1.038-26.178-7.664-77.288-41.42-113.369    c-24.28-25.951-57.598-39.11-99.029-39.11c-41.432,0-74.749,13.159-99.029,39.11c-33.756,36.081-40.382,87.19-41.42,113.369    H87.599c-42.3,0-57.985-34.7-58.632-36.177l0.044,0.102L0,292.635c0.952,2.259,24.021,55.343,87.6,55.343h335.109l0.066-0.001    c2.852-0.023,70.063-1.213,89.226-56.274L482.272,281.357z M179.778,224.639c18.089-19.336,43.674-29.139,76.045-29.139    c32.308,0,57.856,9.766,75.938,29.026c11.416,12.161,18.933,26.96,23.872,41.615H155.95    C160.878,251.561,168.379,236.821,179.778,224.639z M146.885,316.501c0.242-5.295,0.755-11.751,1.755-18.884h214.295    c1.006,7.131,1.53,13.588,1.783,18.884H146.885z"/>
	</g>
</g>
<g>
</g>
<g>
</g>
<g>
</g>
<g>
</g>
<g>
</g>
<g>
</g>
<g>
</g>
<g>
</g>
<g>
</g>
<g>
</g>
<g>
</g>
<g>
</g>
<g>
</g>
<g>
</g>
<g>
</g>
</svg>
