<?xml version="1.0" encoding="iso-8859-1"?>
<!-- Generator: Adobe Illustrator 19.0.0, SVG Export Plug-In . SVG Version: 6.00 Build 0)  -->
<svg xmlns="http://www.w3.org/2000/svg" xmlns:xlink="http://www.w3.org/1999/xlink" version="1.1" id="Layer_1" x="0px" y="0px" viewBox="0 0 512 512" style="enable-background:new 0 0 512 512;" xml:space="preserve">
<g>
	<g>
		<path d="M465.684,225.373c-12.977-40.378-50.889-69.683-95.522-69.683c-43.777,0-81.088,28.191-94.748,67.371    c-14.196-4.898-27.737-3.557-38.764,0.177c-13.61-39.271-50.968-67.547-94.811-67.547c-44.634,0-82.546,29.305-95.522,69.683H0    v31.347h41.538c0.39,54.98,45.23,99.59,100.301,99.59c55.312,0,100.31-44.999,100.31-100.31c0-0.355-0.009-0.708-0.014-1.063    c2.051-1.048,4.578-2.105,7.432-2.823c7.041-1.77,13.733-0.892,20.298,2.67c-0.005,0.405-0.016,0.81-0.016,1.216    c0,55.312,44.998,100.31,100.31,100.31c55.07,0,99.911-44.61,100.301-99.59H512v-31.347H465.684z M141.839,324.963    c-38.026,0-68.963-30.937-68.963-68.963c0-38.027,30.936-68.963,68.963-68.963s68.963,30.936,68.963,68.963    C210.802,294.026,179.866,324.963,141.839,324.963z M370.161,324.963c-38.027,0-68.963-30.937-68.963-68.963    c0-38.027,30.936-68.963,68.963-68.963s68.963,30.936,68.963,68.963C439.125,294.026,408.187,324.963,370.161,324.963z"/>
	</g>
</g>
<g>
</g>
<g>
</g>
<g>
</g>
<g>
</g>
<g>
</g>
<g>
</g>
<g>
</g>
<g>
</g>
<g>
</g>
<g>
</g>
<g>
</g>
<g>
</g>
<g>
</g>
<g>
</g>
<g>
</g>
</svg>
