<?xml version="1.0" encoding="iso-8859-1"?>
<!-- Generator: Adobe Illustrator 19.0.0, SVG Export Plug-In . SVG Version: 6.00 Build 0)  -->
<svg xmlns="http://www.w3.org/2000/svg" xmlns:xlink="http://www.w3.org/1999/xlink" version="1.1" id="Layer_1" x="0px" y="0px" viewBox="0 0 512 512" style="enable-background:new 0 0 512 512;" xml:space="preserve">
<g>
	<g>
		<path d="M512,199.692h-30.828c-0.717-1.446-1.497-2.903-2.345-4.363c-9.52-16.38-29.305-35.904-69.507-35.904h-67.056h-20.873    H191.901h-0.682h-87.247c-40.202,0-59.989,19.525-69.508,35.904c-0.937,1.613-1.786,3.222-2.565,4.817H0v31.598h23.836    c-0.855,11.129-2.935,61.63,26.038,93.936c16.006,17.846,38.077,26.894,65.604,26.894c68.861,0,104.839-47.543,120.156-75.882    c6.017-11.133,9.833-22.977,11.353-35.002c2.158-1.408,5.199-2.893,8.65-3.092c3.363-0.189,6.948,0.911,10.689,3.279    c1.536,11.959,5.345,23.739,11.332,34.814c15.317,28.34,51.295,75.883,120.156,75.883c27.526,0,49.599-9.049,65.604-26.896    c29.389-32.769,26.827-84.257,26-94.39H512V199.692z M207.834,261.67c-14.624,27.057-42.517,59.308-92.359,59.308    c-18.379,0-32.12-5.336-42.008-16.314c-22.609-25.1-18.073-71.207-18.028-71.637l0.09-0.59v-0.791    c0.045-0.914,0.693-11.42,6.778-21.317c7.986-12.99,21.614-19.305,41.664-19.305h86.17c1.613,0.285,6.757,1.433,11.893,5.096    c7.91,5.639,12.557,14.956,13.813,27.69C217.103,236.557,214.332,249.649,207.834,261.67z M268.054,208.509    c-5.424-1.41-10.282-1.678-14.246-1.454c-3.044,0.176-5.916,0.649-8.605,1.325c-1.609-6.562-3.906-12.314-6.667-17.356h36.219    C271.974,196.099,269.664,201.892,268.054,208.509z M439.822,304.663c-9.889,10.978-23.63,16.314-42.009,16.314    c-49.841,0-77.735-32.251-92.358-59.309c-6.498-12.021-9.268-25.113-8.01-37.859c1.255-12.734,5.903-22.052,13.813-27.69    c5.135-3.662,10.28-4.809,11.893-5.096h19.113h67.056c20.049,0,33.678,6.314,41.663,19.305c6.092,9.91,6.734,20.43,6.778,21.322    l0.002,0.528l0.085,0.814C457.894,233.456,462.43,279.563,439.822,304.663z"/>
	</g>
</g>
<g>
</g>
<g>
</g>
<g>
</g>
<g>
</g>
<g>
</g>
<g>
</g>
<g>
</g>
<g>
</g>
<g>
</g>
<g>
</g>
<g>
</g>
<g>
</g>
<g>
</g>
<g>
</g>
<g>
</g>
</svg>
