<?xml version="1.0" encoding="iso-8859-1"?>
<!-- Generator: Adobe Illustrator 19.0.0, SVG Export Plug-In . SVG Version: 6.00 Build 0)  -->
<svg xmlns="http://www.w3.org/2000/svg" xmlns:xlink="http://www.w3.org/1999/xlink" version="1.1" id="Layer_1" x="0px" y="0px" viewBox="0 0 512 512" style="enable-background:new 0 0 512 512;" xml:space="preserve">
<g>
	<g>
		<path d="M486.935,205.004c0.403-6.011,0.437-9.744,0.439-10.207l0.052-10.42l-9.588-4.08    c-74.224-31.59-127.846-19.988-159.76-4.69c-35.201,16.872-52.393,41.844-53.108,42.899l-3.217,4.748l0.607,5.702    c0.049,0.46,0.522,4.701,1.824,11.326h-16.37c1.303-6.625,1.775-10.866,1.824-11.326l0.607-5.702l-3.217-4.748    c-0.715-1.055-17.908-26.026-53.108-42.899c-31.912-15.297-85.535-26.899-159.76,4.69l-9.588,4.08l0.052,10.42    c0.002,0.463,0.036,4.194,0.439,10.207H0v31.347h28.99c1.825,9.98,4.412,20.971,8.086,32.073    c17.226,52.036,49.584,80.78,93.576,83.126c2.174,0.116,4.324,0.174,6.453,0.174c40.58,0,72.827-21.029,93.529-61.124    c3.307-6.404,6.057-12.821,8.346-18.97h34.04c2.289,6.149,5.04,12.566,8.346,18.97c20.703,40.099,52.946,61.124,93.529,61.124    c2.127,0,4.281-0.059,6.453-0.174c43.992-2.346,76.35-31.09,93.576-83.126c3.675-11.102,6.261-22.094,8.086-32.073H512v-31.347    H486.935z M202.422,276.91c-16.153,30.816-39.084,44.977-70.099,43.338c-61.471-3.279-73.471-85.606-75.796-115.17    c46.158-17.513,87.304-18.153,122.425-1.872c19.981,9.261,32.783,21.887,38.574,28.501    C215.86,240.942,211.666,259.275,202.422,276.91z M379.678,320.248c-31.013,1.658-53.946-12.521-70.099-43.338    c-9.245-17.636-13.439-35.969-15.104-45.203c5.792-6.613,18.594-19.24,38.573-28.501c35.119-16.281,76.265-15.64,122.425,1.872    C453.146,234.662,441.14,316.969,379.678,320.248z"/>
	</g>
</g>
<g>
</g>
<g>
</g>
<g>
</g>
<g>
</g>
<g>
</g>
<g>
</g>
<g>
</g>
<g>
</g>
<g>
</g>
<g>
</g>
<g>
</g>
<g>
</g>
<g>
</g>
<g>
</g>
<g>
</g>
</svg>
