<?xml version="1.0" encoding="iso-8859-1"?>
<!-- Generator: Adobe Illustrator 19.0.0, SVG Export Plug-In . SVG Version: 6.00 Build 0)  -->
<svg xmlns="http://www.w3.org/2000/svg" xmlns:xlink="http://www.w3.org/1999/xlink" version="1.1" id="Layer_1" x="0px" y="0px" viewBox="0 0 512.001 512.001" style="enable-background:new 0 0 512.001 512.001;" xml:space="preserve">
<g>
	<g>
		<path d="M494.923,352.082c-1.684-19.868-8.729-35.069-9.526-36.737l-1.019-2.129L373.657,193.169V0H215.925v257.582    l140.112,162.432l2.046,1.266c1.584,0.98,26.711,16.207,57.502,16.206c16.259-0.001,34.102-4.248,50.885-17.082    C487.509,404.316,497.348,380.691,494.923,352.082z M247.267,31.342h95.048v31.006h-95.048V31.342z M368.814,386.841    L247.267,245.932V93.69h95.048v111.727l99.528,107.91c-6.918,2.45-14.57,5.741-22.28,10.141    C393.701,338.226,376.489,359.852,368.814,386.841z M447.432,395.507c-12.773,9.767-28.512,12.776-46.779,8.95    c-1.216-0.255-2.401-0.537-3.561-0.833c7.872-43.23,44.675-58.485,64.014-63.573C465.137,354.543,468.114,379.691,447.432,395.507    z"/>
	</g>
</g>
<g>
	<g>
		<path d="M295.714,426.597c-1.683-19.868-8.728-35.07-9.526-36.738l-1.019-2.129L174.449,267.685V74.515H16.717v257.582    L156.83,494.529l2.046,1.266c1.584,0.981,26.711,16.207,57.502,16.206c16.259-0.001,34.102-4.248,50.885-17.082    C288.3,478.832,298.139,455.205,295.714,426.597z M48.059,105.857h95.048v31.006H48.059V105.857z M169.607,461.356L48.059,320.448    V168.204h95.048v111.727l99.528,107.909c-6.918,2.45-14.57,5.741-22.28,10.141C194.493,412.742,177.281,434.367,169.607,461.356z     M248.224,470.023c-12.773,9.767-28.513,12.776-46.779,8.95c-1.216-0.255-2.401-0.537-3.561-0.833    c7.872-43.23,44.675-58.486,64.013-63.573C265.929,429.058,268.907,454.205,248.224,470.023z"/>
	</g>
</g>
<g>
</g>
<g>
</g>
<g>
</g>
<g>
</g>
<g>
</g>
<g>
</g>
<g>
</g>
<g>
</g>
<g>
</g>
<g>
</g>
<g>
</g>
<g>
</g>
<g>
</g>
<g>
</g>
<g>
</g>
</svg>
