<?xml version="1.0" encoding="iso-8859-1"?>
<!-- Generator: Adobe Illustrator 19.0.0, SVG Export Plug-In . SVG Version: 6.00 Build 0)  -->
<svg xmlns="http://www.w3.org/2000/svg" xmlns:xlink="http://www.w3.org/1999/xlink" version="1.1" id="Layer_1" x="0px" y="0px" viewBox="0 0 512.002 512.002" style="enable-background:new 0 0 512.002 512.002;" xml:space="preserve">
<g>
	<g>
		<path d="M424.486,413.169l-26.652-388.42l-0.03,0.002l0.149-0.58h-72.189L312.85,0H196.096l-10.737,24.172h-71.373l0.175,0.683    L87.516,413.17l42.317,12.915l-11.371,72.276l15.435,2.891c2.343,0.439,58.115,10.75,121.326,10.75s118.983-10.31,121.326-10.75    l15.435-2.891l-11.298-71.824L424.486,413.169z M185.229,56.508l54.573,126.702v25.344h-45.257L155.639,56.508H185.229z     M121.537,389.742l18.183-265.001l23.234,90.803l-28.046,178.278L121.537,389.742z M239.833,479.45    c-34.964-0.946-66.548-4.848-84.483-7.485l36.353-231.076h48.099h0.031V479.45z M213.516,40.438l3.599-8.101h76.348l4.679,8.757    l-42.172,97.91L213.516,40.438z M272.139,183.208l54.572-126.702h29.59l-38.906,152.046h-45.256V183.208z M272.17,479.405V240.889    h46.577l36.354,231.08C337.45,474.568,306.564,478.39,272.17,479.405z M375.612,394.276l-27.55-175.127l24.207-94.606    l18.197,265.199L375.612,394.276z"/>
	</g>
</g>
<g>
</g>
<g>
</g>
<g>
</g>
<g>
</g>
<g>
</g>
<g>
</g>
<g>
</g>
<g>
</g>
<g>
</g>
<g>
</g>
<g>
</g>
<g>
</g>
<g>
</g>
<g>
</g>
<g>
</g>
</svg>
