<?xml version="1.0" encoding="iso-8859-1"?>
<!-- Generator: Adobe Illustrator 19.0.0, SVG Export Plug-In . SVG Version: 6.00 Build 0)  -->
<svg xmlns="http://www.w3.org/2000/svg" xmlns:xlink="http://www.w3.org/1999/xlink" version="1.1" id="Layer_1" x="0px" y="0px" viewBox="0 0 512 512" style="enable-background:new 0 0 512 512;" xml:space="preserve">
<g>
	<g>
		<path d="M355.881,208.978h-6.136v-39.944L380.803,0h-76.636l-3.845,10.094c-7.018,18.422-32.599,26.708-44.324,28.882    c-11.727-2.175-37.306-10.463-44.322-28.882L207.832,0h-76.636l31.058,169.034v39.944h-6.136L105.12,498.682l15.589,2.609    C123.321,501.729,185.499,512,256,512s132.679-10.271,135.291-10.709l15.589-2.609L355.881,208.978z M271.674,67.391    c15.323-4.347,39.765-14.376,52.99-36.044h18.508L320.72,153.542h-49.047V67.391z M271.674,184.89H318.4v24.088H193.6V184.89    h46.726H271.674z M187.335,31.347c13.225,21.668,37.668,31.697,52.991,36.044v86.151H191.28L168.827,31.347H187.335z M256,480.653    c-47.393,0-91.817-4.974-114.468-8.002l40.896-232.326h29.395l-4.428,37.294l31.129,3.696l4.867-40.991h24.696l4.867,40.991    l31.129-3.696l-4.428-37.294h29.917l40.897,232.326C347.816,475.679,303.393,480.653,256,480.653z"/>
	</g>
</g>
<g>
</g>
<g>
</g>
<g>
</g>
<g>
</g>
<g>
</g>
<g>
</g>
<g>
</g>
<g>
</g>
<g>
</g>
<g>
</g>
<g>
</g>
<g>
</g>
<g>
</g>
<g>
</g>
<g>
</g>
</svg>
