<?xml version="1.0" encoding="iso-8859-1"?>
<!-- Generator: Adobe Illustrator 19.0.0, SVG Export Plug-In . SVG Version: 6.00 Build 0)  -->
<svg xmlns="http://www.w3.org/2000/svg" xmlns:xlink="http://www.w3.org/1999/xlink" version="1.1" id="Layer_1" x="0px" y="0px" viewBox="0 0 512 512" style="enable-background:new 0 0 512 512;" xml:space="preserve">
<g>
	<g>
		<path d="M415.983,474.073c-9.186-161.112-61.898-237.265-64.138-240.429l-4.684-6.616H164.84l-4.684,6.616    c-2.239,3.163-54.951,79.316-64.138,240.429l-0.58,10.162l9.048,4.663C106.315,489.841,150.528,512,256,512    c105.473,0,149.685-22.159,151.514-23.102l9.048-4.663L415.983,474.073z M256,480.653c-70.606,0-111.118-10.406-127.958-16.082    c5.283-73.191,20.038-126.138,31.79-158.2c8.727-23.81,17.067-39.76,21.829-47.996h28.527l-2.823,33.438l31.236,2.636    l3.046-36.074h29.462l3.046,36.074l31.237-2.636l-2.823-33.438h27.772c4.77,8.249,13.106,24.195,21.83,47.996    c11.752,32.063,26.507,85.009,31.79,158.2C367.118,470.247,326.607,480.653,256,480.653z"/>
	</g>
</g>
<g>
	<g>
		<path d="M363.461,54.507c-8.499-6.765-17.541-11.861-26.98-15.277V0h-31.347v34.093c-7.31,0.154-14.751,1.194-22.27,3.149    c-10.977,2.854-20.048,7.105-26.415,10.671c-17.966-11.463-34.983-15.183-49.584-15.136V0h-31.347v38.729    c-16.438,6.281-26.608,15.377-27.853,16.525l-6.09,5.622l21.858,147.257h185.13v-0.001l21.968-147.998L363.461,54.507z     M321.528,176.785H190.473L175.184,73.783c3.96-2.48,9.617-5.446,16.44-7.422c18.528-5.37,36.948-1.067,54.753,12.782l9.588,7.457    l9.614-7.424c0.099-0.076,10.279-7.725,25.173-11.597c16.546-4.3,31.989-2.135,46.03,6.433L321.528,176.785z"/>
	</g>
</g>
<g>
</g>
<g>
</g>
<g>
</g>
<g>
</g>
<g>
</g>
<g>
</g>
<g>
</g>
<g>
</g>
<g>
</g>
<g>
</g>
<g>
</g>
<g>
</g>
<g>
</g>
<g>
</g>
<g>
</g>
</svg>
