<?xml version="1.0" encoding="iso-8859-1"?>
<!-- Generator: Adobe Illustrator 19.0.0, SVG Export Plug-In . SVG Version: 6.00 Build 0)  -->
<svg xmlns="http://www.w3.org/2000/svg" xmlns:xlink="http://www.w3.org/1999/xlink" version="1.1" id="Layer_1" x="0px" y="0px" viewBox="0 0 512 512" style="enable-background:new 0 0 512 512;" xml:space="preserve">
<g>
	<g>
		<path d="M441.468,404.606c-0.123-0.179-12.672-18.593-46.243-79.922c-30.789-56.264,4.902-153.26,5.262-154.224l0.854-2.272    c4.626-6.665,8.272-14.05,10.699-22.002c3.834-12.562,4.46-25.522,1.861-38.519l-0.069-0.326    c-0.438-1.977-10.528-45.167-54.323-65.237V0h-31.246v42.224c-16.906,8.71-53.01,31.277-72.228,72.747    c-19.218-41.47-55.321-64.036-72.227-72.747V0h-31.246v42.103c-43.795,20.071-53.883,63.259-54.323,65.237l-0.069,0.326    c-2.599,12.997-1.973,25.958,1.861,38.518c2.428,7.956,6.077,15.345,10.707,22.013l0.843,2.251    c0.365,0.973,36.055,97.97,5.267,154.232c-33.572,61.332-46.121,79.745-46.229,79.902l-10.494,15.168L256.036,512l179.225-84.392    l16.614-7.851L441.468,404.606z M343.865,69.376c31.033,12.767,38.881,42.371,39.44,44.644c1.522,7.798,1.135,15.55-1.152,23.044    c-6.238,20.44-25.765,34.926-48.588,36.046c-31.905,1.583-47.75-25.16-52.841-36.016    C294.828,97.331,330.579,76.094,343.865,69.376z M128.757,114.059c0.685-2.752,8.649-32.01,39.448-44.681    c13.285,6.717,49.031,27.948,63.135,67.706c-5.097,10.806-21.004,37.62-52.834,36.029c-22.824-1.12-42.351-15.605-48.589-36.047    C127.633,129.583,127.244,121.844,128.757,114.059z M256.035,477.462l-149.97-70.617c7.493-12.411,19.734-33.441,38.192-67.163    c23.712-43.333,16.902-101.682,8.168-140.129c7.761,2.697,16.01,4.347,24.549,4.767c1.448,0.07,2.885,0.106,4.313,0.106    c24.44,0,46.113-10.355,62.901-30.119c5.065-5.964,8.959-11.934,11.847-17.056c2.888,5.122,6.783,11.092,11.847,17.056    c16.788,19.764,38.459,30.119,62.901,30.119c1.427,0,2.867-0.035,4.314-0.106c8.539-0.419,16.789-2.071,24.548-4.766    c-8.733,38.447-15.543,96.797,8.17,140.13c18.458,33.721,30.698,54.75,38.191,67.161L256.035,477.462z"/>
	</g>
</g>
<g>
</g>
<g>
</g>
<g>
</g>
<g>
</g>
<g>
</g>
<g>
</g>
<g>
</g>
<g>
</g>
<g>
</g>
<g>
</g>
<g>
</g>
<g>
</g>
<g>
</g>
<g>
</g>
<g>
</g>
</svg>
