<?xml version="1.0" encoding="iso-8859-1"?>
<!-- Generator: Adobe Illustrator 19.0.0, SVG Export Plug-In . SVG Version: 6.00 Build 0)  -->
<svg xmlns="http://www.w3.org/2000/svg" xmlns:xlink="http://www.w3.org/1999/xlink" version="1.1" id="Layer_1" x="0px" y="0px" viewBox="0 0 512 512" style="enable-background:new 0 0 512 512;" xml:space="preserve">
<g>
	<g>
		<path d="M493.134,96.007c-1.509,0.319-151.877,31.92-237.134,31.92c-84.183,0-235.636-31.605-237.156-31.925L0,92.044v124.102    h15.631c0.402,0,40.723,0.27,84.148,23.616c58.19,31.284,92.797,87.324,102.861,166.561l1.735,13.662h103.25l1.735-13.662    c9.994-78.69,44.215-134.52,101.713-165.939c43.47-23.753,84.92-24.236,85.295-24.238H512V92.016L493.134,96.007z     M397.418,212.227c-29.674,15.953-54.496,37.916-73.777,65.279c-21.583,30.628-36.12,67.99-43.296,111.217h-48.69    c-7.177-43.227-21.714-80.589-43.296-111.217c-19.282-27.363-44.103-49.326-73.777-65.279    c-18.801-10.108-37.102-16.479-52.751-20.496c51.137,10,134.416,24.415,189.616,24.415c60.108,0,158.215-17.11,209.74-26.965    C443.476,192.846,420.839,199.635,397.418,212.227z M480.738,153.459c-32.772,6.622-160.147,31.426-229.291,31.426    c-68.84,0-188.85-24.637-220.184-31.331v-23.158c44.047,8.626,154.509,28.794,224.738,28.794    c71.034,0,180.848-20.126,224.737-28.771V153.459z"/>
	</g>
</g>
<g>
</g>
<g>
</g>
<g>
</g>
<g>
</g>
<g>
</g>
<g>
</g>
<g>
</g>
<g>
</g>
<g>
</g>
<g>
</g>
<g>
</g>
<g>
</g>
<g>
</g>
<g>
</g>
<g>
</g>
</svg>
