<?xml version="1.0" encoding="iso-8859-1"?>
<!-- Generator: Adobe Illustrator 19.0.0, SVG Export Plug-In . SVG Version: 6.00 Build 0)  -->
<svg xmlns="http://www.w3.org/2000/svg" xmlns:xlink="http://www.w3.org/1999/xlink" version="1.1" id="Layer_1" x="0px" y="0px" viewBox="0 0 512 512" style="enable-background:new 0 0 512 512;" xml:space="preserve">
<g>
	<g>
		<path d="M509.654,261.113l-0.069-0.327c-0.69-3.103-17.149-73.505-90.494-102.031V46.752h-31.347v114.293    c-10.52,5.281-27.192,14.669-45.26,28.801c-36.049,28.196-62.215,63.35-76.245,102.232H245.76    c-14.03-38.881-40.197-74.036-76.245-102.232c-18.953-14.825-36.373-24.431-46.763-29.549V46.752H91.405v112.586    c-72.074,28.895-88.306,98.367-88.99,101.449l-0.069,0.327c-3.877,19.385-2.945,38.707,2.769,57.428    c3.548,11.626,8.85,22.439,15.56,32.231v97.37l10.52,3.662c1.543,0.537,38.321,13.155,85.497,13.437    c0.535,0.004,1.067,0.005,1.6,0.005c56.254,0,103.463-17.88,137.736-51.967c34.277,34.089,81.478,51.969,137.737,51.967    c0.53,0,1.069-0.002,1.6-0.005c47.176-0.283,83.955-12.901,85.497-13.437l10.52-3.662v-97.452    c6.682-9.771,11.965-20.555,15.503-32.149C512.599,299.818,513.531,280.497,509.654,261.113z M361.035,215.137    c18.942-14.94,36.359-24.033,44.64-27.955c24.055,8.885,43.464,24.461,57.75,46.37c10.75,16.484,14.813,31.121,15.462,33.644    c-9.634,2.136-27.475,5.037-47.817,3.222c-34.759-3.099-62.308-18.276-82.073-45.143    C352.842,221.815,356.853,218.435,361.035,215.137z M48.575,233.551c14.288-21.911,33.698-37.489,57.757-46.373    c9.988,4.728,33.328,17.025,56.819,38.282c-19.755,26.75-47.259,41.865-81.937,44.957c-20.529,1.831-38.514-1.143-48.083-3.283    C33.872,264.282,37.969,249.814,48.575,233.551z M32.617,299.033c9.112,1.701,21.426,3.305,35.513,3.305    c4.699,0,9.596-0.179,14.634-0.591c42.215-3.459,77.201-21.811,102.305-53.381c13.268,16.132,25.107,35.605,32.724,58.718    c-3.009,6.877-9.838,20.613-21.246,33.83c-20.289,23.51-45.351,34.713-74.542,33.275c-40.765-2-75.692-28.04-86.909-64.797    C34.051,305.965,33.226,302.511,32.617,299.033z M460.034,425.253c-13.229,3.448-37.625,8.583-65.739,8.647    c-0.186,0.001-0.369,0.001-0.555,0.001c-54.207,0-96.442-18.105-125.532-53.815l-4.761-5.774h-14.896l-4.704,5.774    c-29.092,35.713-71.32,53.815-125.532,53.815c-0.183,0-0.372,0-0.555-0.001c-28.116-0.064-52.517-5.201-65.74-8.644v-42.958    c19.518,13.611,43.15,21.96,68.45,23.201c2.158,0.106,4.296,0.158,6.427,0.158c36.537,0,68.988-15.535,94.165-45.178    c11.732-13.814,19.402-27.831,23.737-37.053h22.397c4.335,9.222,12.004,23.24,23.737,37.053    c25.18,29.646,57.625,45.178,94.165,45.178c2.128,0,4.272-0.053,6.427-0.158c25.325-1.242,48.978-9.607,68.507-23.242V425.253z     M476.905,309.392c-11.217,36.758-46.144,62.797-86.911,64.796c-29.17,1.441-54.252-9.763-74.542-33.275    c-11.418-13.227-18.248-26.974-21.247-33.831c6.99-21.265,17.978-40.973,32.821-58.955    c25.116,31.716,60.173,50.152,102.494,53.619c5.039,0.414,9.933,0.591,14.634,0.591c13.935,0,26.137-1.569,35.219-3.251    C478.768,302.546,477.944,305.983,476.905,309.392z"/>
	</g>
</g>
<g>
</g>
<g>
</g>
<g>
</g>
<g>
</g>
<g>
</g>
<g>
</g>
<g>
</g>
<g>
</g>
<g>
</g>
<g>
</g>
<g>
</g>
<g>
</g>
<g>
</g>
<g>
</g>
<g>
</g>
</svg>
