<?xml version="1.0" encoding="iso-8859-1"?>
<!-- Generator: Adobe Illustrator 19.0.0, SVG Export Plug-In . SVG Version: 6.00 Build 0)  -->
<svg xmlns="http://www.w3.org/2000/svg" xmlns:xlink="http://www.w3.org/1999/xlink" version="1.1" id="Layer_1" x="0px" y="0px" viewBox="0 0 512 512" style="enable-background:new 0 0 512 512;" xml:space="preserve">
<g>
	<g>
		<path d="M495.841,250.756c-1.34,0.019-33.14,0.283-50.25-25.159v-0.001c-5.717-8.497-8.738-18.756-8.738-29.663V95.907H336.354    v98.473l0.007,0.479c0.006,0.202,0.18,20.749-15.555,36.972c-13.638,14.062-35.457,21.191-64.85,21.191    c-29.16,0-50.872-7.02-64.532-20.865c-15.46-15.671-15.863-35.882-15.871-37.345l0.004-98.905h-100.5v100.026    c0,10.907-3.021,21.166-8.738,29.664c-17.11,25.44-48.911,25.154-50.161,25.162L0,250.289v165.805h511.911V266.455L512,250.287    L495.841,250.756z M480.505,384.688H31.406v-25.346h449.098V384.688z M480.505,327.934H31.406v-47.185    c16.95-2.886,43.462-11.588,60.973-37.624c9.215-13.698,14.085-30.017,14.085-47.192v-68.62h37.687v66.969    c-0.044,3.959,0.425,34.686,24.41,59.415c19.779,20.391,49.182,30.731,87.394,30.731s67.616-10.34,87.394-30.731    c23.985-24.728,24.454-55.455,24.41-59.415v-66.969h37.687v68.62c0,17.175,4.87,33.494,14.085,47.192v-0.001    c17.511,26.036,44.023,34.739,60.973,37.625V327.934z"/>
	</g>
</g>
<g>
</g>
<g>
</g>
<g>
</g>
<g>
</g>
<g>
</g>
<g>
</g>
<g>
</g>
<g>
</g>
<g>
</g>
<g>
</g>
<g>
</g>
<g>
</g>
<g>
</g>
<g>
</g>
<g>
</g>
</svg>
