<?xml version="1.0" encoding="iso-8859-1"?>
<!-- Generator: Adobe Illustrator 19.0.0, SVG Export Plug-In . SVG Version: 6.00 Build 0)  -->
<svg xmlns="http://www.w3.org/2000/svg" xmlns:xlink="http://www.w3.org/1999/xlink" version="1.1" id="Layer_1" x="0px" y="0px" viewBox="0 0 512 512" style="enable-background:new 0 0 512 512;" xml:space="preserve">
<g>
	<g>
		<path d="M511.226,425.414c-7.904-114.68-35.794-197.26-57.799-246.341c-18.821-41.979-36.601-67.373-44.02-77.107V40.358H102.399    v61.864c-7.527,9.912-25.162,35.223-43.826,76.849C36.568,228.153,8.678,310.733,0.774,425.414L0,436.64l10.352,4.414    c2.929,1.25,73.715,30.587,245.648,30.587s242.719-29.337,245.648-30.587L512,436.64L511.226,425.414z M134.04,71.999h243.725    v19.898H134.04V71.999z M256,440.001c-128.192,0-197.986-16.932-222.742-24.488c8.555-102.891,33.61-177.21,53.519-221.999    c16.378-36.845,31.952-60.072,39.206-69.976h16.382c-12.74,29.719-33.146,84.518-39.554,143.18l31.453,3.436    c6.979-63.878,32.671-124.664,42.767-146.616h14.827l-7.184,97.326l31.555,2.33l7.355-99.656h16.594v158.231h31.641V123.538    h16.923l7.355,99.656l31.555-2.33l-7.184-97.326h13.781c10.096,21.916,35.764,82.582,42.759,146.616l31.453-3.436    c-6.408-58.661-26.815-113.461-39.554-143.18h17.116c16.816,22.941,78.249,117.562,92.718,291.971    C453.942,423.079,384.151,440.001,256,440.001z"/>
	</g>
</g>
<g>
</g>
<g>
</g>
<g>
</g>
<g>
</g>
<g>
</g>
<g>
</g>
<g>
</g>
<g>
</g>
<g>
</g>
<g>
</g>
<g>
</g>
<g>
</g>
<g>
</g>
<g>
</g>
<g>
</g>
</svg>
