<?xml version="1.0" encoding="iso-8859-1"?>
<!-- Generator: Adobe Illustrator 19.0.0, SVG Export Plug-In . SVG Version: 6.00 Build 0)  -->
<svg xmlns="http://www.w3.org/2000/svg" xmlns:xlink="http://www.w3.org/1999/xlink" version="1.1" id="Layer_1" x="0px" y="0px" viewBox="0 0 512 512" style="enable-background:new 0 0 512 512;" xml:space="preserve">
<g>
	<g>
		<path d="M492.795,170.942l-5.237-10.317l-215.936,37.927l-14.398-47.297l-12.275,0.729    c-53.43,3.144-103.934,15.565-150.107,36.918c-46.371,21.436-70.504,43.643-76.802,49.931    c-15.325,15.325-18.5,32.972-17.99,46.433c0.104,2.832,0.364,5.466,0.718,7.86c0.843,5.726,2.155,10.047,2.873,12.171l0.01,0.021    l13.087,55.428h458.347l17.647-52.097C535.147,255.99,494.565,174.44,492.795,170.942z M40.134,260.924    c23.185-23.196,92.752-67.828,194.426-76.865l6.07,19.937l24.726,81.269H31.212C30.794,278.342,32.137,268.911,40.134,260.924z     M452.692,329.513H41.455L38.384,316.5h236.477h32.649h149.586L452.692,329.513z M471.171,285.267H298.004l-17.22-56.605    l188.669-33.149C477.054,214.909,489.818,257.011,471.171,285.267z"/>
	</g>
</g>
<g>
</g>
<g>
</g>
<g>
</g>
<g>
</g>
<g>
</g>
<g>
</g>
<g>
</g>
<g>
</g>
<g>
</g>
<g>
</g>
<g>
</g>
<g>
</g>
<g>
</g>
<g>
</g>
<g>
</g>
</svg>
