<?xml version="1.0" encoding="iso-8859-1"?>
<!-- Generator: Adobe Illustrator 19.0.0, SVG Export Plug-In . SVG Version: 6.00 Build 0)  -->
<svg xmlns="http://www.w3.org/2000/svg" xmlns:xlink="http://www.w3.org/1999/xlink" version="1.1" id="Layer_1" x="0px" y="0px" viewBox="0 0 512 512" style="enable-background:new 0 0 512 512;" xml:space="preserve">
<g>
	<g>
		<path d="M497.035,177.899l-5.921-10.658l-237.947,64.383l-0.466,0.134c-19.062,5.78-55.198,11.332-71.018,1.626    c-12.626-7.746-22.347-13.2-29.985-17.007l14.865-29.177l-27.766-14.146l-18.681,36.669l-0.408,0.104l-21.68-32.929    l-26.029,17.137l15.734,23.899l-36.279,9.198l-1.547,0.785c-1.671,0.85-16.718,8.773-29.968,25.213    C7.217,268.917-6.056,295.562,2.964,332.841l2.883,11.918h222.433l133.912-40.211v40.211h132.67v-46.022l1.983-3.372    C498.219,293.028,530.123,237.459,497.035,177.899z M110.353,313.596H31.381c-2.413-35.165,24.952-53.405,31.365-57.178    l47.607-12.07V313.596z M463.698,313.596h-70.344v-10.549h70.344V313.596z M473.611,271.883H362.613h-0.422v0.127l-138.489,41.586    h-82.186V246.18c5.763,3.032,13.522,7.419,23.871,13.768c32.459,19.916,88.626,3.971,96.15,1.697l213.388-57.739    C486.263,232.872,478.745,259.301,473.611,271.883z"/>
	</g>
</g>
<g>
</g>
<g>
</g>
<g>
</g>
<g>
</g>
<g>
</g>
<g>
</g>
<g>
</g>
<g>
</g>
<g>
</g>
<g>
</g>
<g>
</g>
<g>
</g>
<g>
</g>
<g>
</g>
<g>
</g>
</svg>
