<?xml version="1.0" encoding="iso-8859-1"?>
<!-- Generator: Adobe Illustrator 19.0.0, SVG Export Plug-In . SVG Version: 6.00 Build 0)  -->
<svg xmlns="http://www.w3.org/2000/svg" xmlns:xlink="http://www.w3.org/1999/xlink" version="1.1" id="Layer_1" x="0px" y="0px" viewBox="0 0 512 512" style="enable-background:new 0 0 512 512;" xml:space="preserve">
<g>
	<g>
		<path d="M358.604,302.61v0.001l-60.795-153.579c-3.838-9.72-11.592-17.547-21.274-21.477c-9.683-3.928-20.698-3.72-30.223,0.577    l-12.298,5.546c-15.261,6.883-23.986,22.81-22.411,38.835c-27.516,12.206-96.46,42.335-138.767,56.84    c-34.441,11.808-48.743,35.915-54.677,54.059c-2.284,6.986-3.506,13.575-4.13,19.198H0v84.637h512V302.61H358.604z M246.9,162.255    l12.298-5.546c2.392-1.079,4.505-0.53,5.548-0.107c1.045,0.424,2.941,1.5,3.911,3.956l56.232,142.054h-30.944l-35.906-92.175    l-13.256-34.029l-1.293-4.361l-0.311-0.94C241.914,167.655,243.548,163.766,246.9,162.255z M47.952,293.157    c5.409-16.542,17.201-28.031,35.049-34.15c42.504-14.573,108.698-43.381,138.309-56.499l38.995,100.103H45.667    C46.144,299.687,46.867,296.476,47.952,293.157z M480.653,355.901H31.347v-21.943h241.169h33.642h64.855h109.641V355.901z"/>
	</g>
</g>
<g>
</g>
<g>
</g>
<g>
</g>
<g>
</g>
<g>
</g>
<g>
</g>
<g>
</g>
<g>
</g>
<g>
</g>
<g>
</g>
<g>
</g>
<g>
</g>
<g>
</g>
<g>
</g>
<g>
</g>
</svg>
