<?xml version="1.0" encoding="iso-8859-1"?>
<!-- Generator: Adobe Illustrator 19.0.0, SVG Export Plug-In . SVG Version: 6.00 Build 0)  -->
<svg xmlns="http://www.w3.org/2000/svg" xmlns:xlink="http://www.w3.org/1999/xlink" version="1.1" id="Layer_1" x="0px" y="0px" viewBox="0 0 512 512" style="enable-background:new 0 0 512 512;" xml:space="preserve">
<g>
	<g>
		<path d="M483.545,399.955V0H230.209v256.794c0,37.077-45.538,52.188-50.303,53.666l-90.618,18.316l-1.285,0.507    c-31.035,12.226-50.826,35.821-57.233,68.235c-1.846,9.34-2.28,18.133-2.122,25.4H14.455V512h240.872l85.095-17.896V512h157.123    V399.955H483.545z M261.555,31.347h190.643v291.527h-60.535V171.886c0-56.752-46.171-102.922-102.922-102.922h-27.185V31.347z     M98.27,358.942l88.525-17.894l1.078-0.258c0.74-0.205,18.307-5.153,35.835-17.289c24.761-17.142,37.848-40.21,37.848-66.708    V100.31h27.185c39.467,0,71.576,32.109,71.576,71.576V354.22h91.882v45.734h-99.056l-97.597,22.964H59.922    C59.374,405.202,63.609,373.291,98.27,358.942z M466.199,480.653h-94.43v-25.175l-119.703,25.175H45.802v-26.388h3.32h210.062    l97.597-22.964h103.082h6.337V480.653z"/>
	</g>
</g>
<g>
</g>
<g>
</g>
<g>
</g>
<g>
</g>
<g>
</g>
<g>
</g>
<g>
</g>
<g>
</g>
<g>
</g>
<g>
</g>
<g>
</g>
<g>
</g>
<g>
</g>
<g>
</g>
<g>
</g>
</svg>
