<?xml version="1.0" encoding="iso-8859-1"?>
<!-- Generator: Adobe Illustrator 19.0.0, SVG Export Plug-In . SVG Version: 6.00 Build 0)  -->
<svg xmlns="http://www.w3.org/2000/svg" xmlns:xlink="http://www.w3.org/1999/xlink" version="1.1" id="Layer_1" x="0px" y="0px" viewBox="0 0 512.001 512.001" style="enable-background:new 0 0 512.001 512.001;" xml:space="preserve">
<g>
	<g>
		<path d="M293.597,82.168l-1.669,13.806c-2.535,20.97-7.561,40.461-14.937,57.931c-9.271,21.959-40.949,46.664-89.196,69.564    c-45.352,21.525-93.9,35.773-121.897,40.344c-25.009,4.082-43.375,14.526-54.585,31.039    c-13.811,20.343-11.589,42.496-10.44,49.414v85.568h511.128V82.168H293.597z M37.44,312.235    c6.212-8.966,17.489-14.838,33.515-17.456c16.152-2.637,35.057-7.362,54.764-13.529c5.89,9.694,14.172,29.007,10.706,57.31H31.754    C31.271,334.936,30.291,322.551,37.44,312.235z M480.623,398.455H32.251v-28.517h448.372V398.455z M480.623,338.561H168.019    c2.961-30.33-4.527-53.067-12.141-67.656c15.538-5.79,30.967-12.252,45.372-19.09c5.366-2.547,10.937-5.315,16.594-8.281    l28.194,46.072l26.764-16.378l-27.761-45.363c7.498-4.773,14.821-9.874,21.699-15.284l35.735,37.326l22.665-21.699l-35.472-37.051    c5.787-6.626,10.657-13.573,14.263-20.813l41.159,28.755l17.971-25.723l-47.979-33.519c2.415-8.497,4.416-17.276,5.975-26.311    h159.564V338.561z"/>
	</g>
</g>
<g>
	<g>
		<path d="M409.561,223.29c-25.67,0-46.555,20.885-46.555,46.555c0,25.671,20.884,46.555,46.555,46.555    c25.67,0,46.555-20.885,46.555-46.555C456.117,244.176,435.232,223.29,409.561,223.29z M409.561,285.023    c-8.368,0-15.177-6.809-15.177-15.177s6.808-15.177,15.177-15.177c8.368,0,15.177,6.809,15.177,15.177    C424.739,278.214,417.93,285.023,409.561,285.023z"/>
	</g>
</g>
<g>
</g>
<g>
</g>
<g>
</g>
<g>
</g>
<g>
</g>
<g>
</g>
<g>
</g>
<g>
</g>
<g>
</g>
<g>
</g>
<g>
</g>
<g>
</g>
<g>
</g>
<g>
</g>
<g>
</g>
</svg>
