<?xml version="1.0" encoding="iso-8859-1"?>
<!-- Generator: Adobe Illustrator 19.0.0, SVG Export Plug-In . SVG Version: 6.00 Build 0)  -->
<svg xmlns="http://www.w3.org/2000/svg" xmlns:xlink="http://www.w3.org/1999/xlink" version="1.1" id="Layer_1" x="0px" y="0px" viewBox="0 0 511.999 511.999" style="enable-background:new 0 0 511.999 511.999;" xml:space="preserve">
<g>
	<g>
		<g>
			<polygon points="511.999,402.301 511.999,402.301 511.999,402.302    "/>
			<path d="M491.681,140.23c-0.496,0.153-50.072,15.377-91.497,21.398c-30.012,4.372-81.877-28.621-99.316-41.695l-13.623-10.236     l-9.078,14.422c-14.216,22.586-47.8,47.804-94.565,71.007c-40.032,19.863-86.234,36.018-117.703,41.155     c-25.009,4.083-43.375,14.527-54.585,31.039c-13.81,20.342-11.59,42.496-10.44,49.414v85.567h511.126l-0.001-268.342     L491.681,140.23z M197.548,223.234c3.127-1.552,6.341-3.185,9.615-4.892l26.986,46.55l27.145-15.737l-26.789-46.21     c5.987-3.652,11.968-7.505,17.817-11.554l34.007,38.73l23.578-20.703L277.15,172.11c6.53-5.767,12.563-11.797,17.844-18.063     c7.285,4.814,17.154,10.963,28.358,16.956c32.682,17.478,60.049,24.772,81.345,21.677c27.186-3.951,56.811-11.379,75.925-16.616     v134.965H168.019c3.047-31.206-4.969-54.374-12.801-68.897C169.453,236.44,183.766,230.072,197.548,223.234z M37.273,284.945     c6.179-9.103,17.512-15.056,33.681-17.696c15.883-2.593,34.615-7.517,54.392-14.137c5.903,9.483,14.617,29.017,11.077,57.917     H31.745C31.289,307.637,30.253,295.285,37.273,284.945z M480.622,370.924H32.25v-28.517h448.372V370.924z"/>
		</g>
	</g>
</g>
<g>
	<g>
		<path d="M416.882,208.376c-24.644,0-44.692,20.048-44.692,44.692c-0.001,24.644,20.048,44.692,44.692,44.692    c24.643,0,44.691-20.048,44.691-44.692S441.525,208.376,416.882,208.376z M416.882,266.383c-7.341,0-13.315-5.972-13.315-13.315    c-0.001-7.341,5.972-13.315,13.315-13.315s13.314,5.972,13.314,13.315C430.196,260.411,424.224,266.383,416.882,266.383z"/>
	</g>
</g>
<g>
</g>
<g>
</g>
<g>
</g>
<g>
</g>
<g>
</g>
<g>
</g>
<g>
</g>
<g>
</g>
<g>
</g>
<g>
</g>
<g>
</g>
<g>
</g>
<g>
</g>
<g>
</g>
<g>
</g>
</svg>
