<?xml version="1.0" encoding="iso-8859-1"?>
<!-- Generator: Adobe Illustrator 19.0.0, SVG Export Plug-In . SVG Version: 6.00 Build 0)  -->
<svg xmlns="http://www.w3.org/2000/svg" xmlns:xlink="http://www.w3.org/1999/xlink" version="1.1" id="Layer_1" x="0px" y="0px" viewBox="0 0 512.001 512.001" style="enable-background:new 0 0 512.001 512.001;" xml:space="preserve">
<g>
	<g>
		<path d="M501.341,296.037v-0.001v-44.26c0-24.998-8.433-68.343-8.792-70.175l-5.33-27.214l-20.563,18.605    c-10.508,9.507-44.033,34.181-72.598,34.181c-45.767,0-73.201-61.278-73.461-61.869l-6.976-16.058l-15.19,8.706    c-1.183,0.677-118.691,67.961-155.271,83.969c-25.16,11.011-39.513,13.001-61.24,16.014c-8.55,1.186-18.241,2.529-29.734,4.625    c-14.691,2.679-26.485,10.045-34.105,21.304c-7.094,10.481-9.417,22.443-9.889,32.173H0v86.719h291.158v-9.085h65.588v9.085    h155.255v-86.719H501.341z M155.725,250.635c7.22-3.16,17.209-8.091,28.692-14.025l18.946,27.493l25.809-17.784l-16.865-24.472    c6.068-3.271,12.25-6.635,18.421-10.016l17.024,24.704l25.809-17.784l-15.267-22.155c16.528-9.207,31.377-17.598,41.607-23.407    c13.837,23.474,45.353,65.328,94.157,65.328c27.219,0,54.088-13.978,72.026-25.871c1.987,13.025,3.915,28.421,3.915,39.131v44.26    H163.845c-2.199-18.551-8.549-32.445-15.287-42.381C150.874,252.717,153.256,251.715,155.725,250.635z M44.096,281.346    c1.831-2.676,5.247-6.41,13.712-7.954c10.836-1.977,19.774-3.216,28.416-4.414c10.644-1.476,20.233-2.806,30.453-5.139    c4.917,4.909,12.638,15.054,15.518,32.195H39.611C40.011,290.985,41.236,285.522,44.096,281.346z M480.657,351.412h-92.57v-9.085    H259.815v9.085H31.343v-24.034h449.315V351.412z"/>
	</g>
</g>
<g>
</g>
<g>
</g>
<g>
</g>
<g>
</g>
<g>
</g>
<g>
</g>
<g>
</g>
<g>
</g>
<g>
</g>
<g>
</g>
<g>
</g>
<g>
</g>
<g>
</g>
<g>
</g>
<g>
</g>
</svg>
