<?xml version="1.0" encoding="iso-8859-1"?>
<!-- Generator: Adobe Illustrator 19.0.0, SVG Export Plug-In . SVG Version: 6.00 Build 0)  -->
<svg xmlns="http://www.w3.org/2000/svg" xmlns:xlink="http://www.w3.org/1999/xlink" version="1.1" id="Layer_1" x="0px" y="0px" viewBox="0 0 512 512" style="enable-background:new 0 0 512 512;" xml:space="preserve">
<g>
	<g>
		<path d="M503.933,173.78l-5.975-16.037l-15.467,7.33c-0.7,0.332-70.615,32.767-129.716,0.402    c-62.999-34.5-88.471-32.214-98.744-24.223l-0.836,0.65l-0.741,0.757c-0.184,0.188-18.649,19.011-40.172,38.013    c-39.579,34.944-51.61,37.233-52.852,37.38c-10.149,1.194-24.613,3.81-39.926,6.579c-25.237,4.564-56.645,10.24-69.117,9.352    c-33.904-2.437-48.189,41.277-49.709,46.268L0,282.483v2.332v11.403v46.094l9.203,4.171c1.514,0.687,37.811,16.905,100.452,24.921    c19.394,2.481,42.713,4.304,69.371,4.304c47.116,0,104.66-5.693,169.381-23.503v21.799h161.696V256.586    C512.907,232.99,513.846,200.547,503.933,173.78z M478.755,342.656h-98.999v-32.575l-20.289,6.249    c-104.407,32.161-190.528,30.889-244.39,24.162c-40.867-5.106-69.876-14.037-83.73-18.993v-15.99    c29.924,7.676,89.482,20.207,159.404,20.206c18.379,0,37.484-0.867,56.944-2.915c46.329-4.877,80.664-13.782,108.252-20.936    c44.36-11.504,74.205-19.232,122.807-3.979V342.656z M477.257,264.818c-51.124-13.54-86.062-4.482-129.181,6.702    c-27.965,7.252-59.66,15.472-103.665,20.105c-89.156,9.386-172.229-8.072-206.893-16.971c3.444-5.473,7.392-9.633,10.636-9.402    c16.399,1.176,47.173-4.393,76.928-9.773c14.823-2.68,28.825-5.212,38.011-6.293c6.129-0.721,15.705-3.479,33.603-15.89    l29.637,24.947l20.187-23.982l-24.483-20.608c3.468-2.916,7.123-6.064,10.992-9.48c1.016-0.897,2.022-1.791,3.021-2.683    l25.539,21.496l20.186-23.982l-22.57-18.998c5.471-5.258,9.837-9.578,12.554-12.296h0.066c5.463,0,23.789,2.206,65.891,25.261    c54.079,29.616,112.529,16.695,140.927,7.183C482.704,222.944,479.931,248.649,477.257,264.818z"/>
	</g>
</g>
<g>
</g>
<g>
</g>
<g>
</g>
<g>
</g>
<g>
</g>
<g>
</g>
<g>
</g>
<g>
</g>
<g>
</g>
<g>
</g>
<g>
</g>
<g>
</g>
<g>
</g>
<g>
</g>
<g>
</g>
</svg>
