<?xml version="1.0" encoding="iso-8859-1"?>
<!-- Generator: Adobe Illustrator 19.0.0, SVG Export Plug-In . SVG Version: 6.00 Build 0)  -->
<svg xmlns="http://www.w3.org/2000/svg" xmlns:xlink="http://www.w3.org/1999/xlink" version="1.1" id="Layer_1" x="0px" y="0px" viewBox="0 0 512 512" style="enable-background:new 0 0 512 512;" xml:space="preserve">
<g>
	<g>
		<path d="M478.118,368.058V288.9c0-107.489-76.749-197.379-178.323-217.773c3.359-6.639,5.264-14.132,5.264-22.066    C305.059,22.008,283.051,0,256,0c-27.052,0-49.059,22.008-49.059,49.059c0,7.934,1.905,15.428,5.264,22.066    C110.631,91.52,33.882,181.411,33.882,288.899v79.158c-17.14,8.446-28.965,26.094-28.965,46.458v45.723    C4.917,488.78,28.138,512,56.68,512H455.32c28.543,0,51.763-23.22,51.763-51.763v-45.723    C507.083,394.151,495.259,376.504,478.118,368.058z M446.779,288.899v73.854h-64.003c-1.065-47.773-7.016-91.995-17.762-131.628    c-9.633-35.529-23.115-67.518-40.072-95.078c-7.911-12.857-15.867-23.566-23.308-32.395    C384.866,124.158,446.779,199.428,446.779,288.899z M299.496,154.511c22.67,37.595,49.49,103.739,51.95,208.24H271.67v-245.71    C280.045,126.121,289.792,138.417,299.496,154.511z M256,31.339c9.77,0,17.72,7.95,17.72,17.72c0,9.771-7.95,17.721-17.72,17.721    c-9.771,0-17.72-7.95-17.72-17.721C238.28,39.288,246.23,31.339,256,31.339z M212.4,154.512    c9.745-16.161,19.531-28.49,27.93-37.582v245.822h-79.88C162.911,258.251,189.731,192.107,212.4,154.512z M65.221,288.899    c0-89.425,61.85-164.662,145.014-185.217c-7.434,8.824-15.38,19.522-23.281,32.364c-16.957,27.561-30.44,59.549-40.072,95.078    c-10.746,39.633-16.696,83.855-17.762,131.628H65.221V288.899z M475.744,460.237c0,11.262-9.161,20.424-20.424,20.424H56.68    c-11.262,0-20.424-9.162-20.424-20.424v-45.723c0-11.262,9.162-20.424,20.424-20.424H455.32c11.262,0,20.424,9.162,20.424,20.424    V460.237z"/>
	</g>
</g>
<g>
	<g>
		<rect x="239.608" y="422.753" width="32.572" height="32.572"/>
	</g>
</g>
<g>
</g>
<g>
</g>
<g>
</g>
<g>
</g>
<g>
</g>
<g>
</g>
<g>
</g>
<g>
</g>
<g>
</g>
<g>
</g>
<g>
</g>
<g>
</g>
<g>
</g>
<g>
</g>
<g>
</g>
</svg>
