<?xml version="1.0" encoding="iso-8859-1"?>
<!-- Generator: Adobe Illustrator 19.0.0, SVG Export Plug-In . SVG Version: 6.00 Build 0)  -->
<svg xmlns="http://www.w3.org/2000/svg" xmlns:xlink="http://www.w3.org/1999/xlink" version="1.1" id="Layer_1" x="0px" y="0px" viewBox="0 0 511.999 511.999" style="enable-background:new 0 0 511.999 511.999;" xml:space="preserve">
<g>
	<g>
		<path d="M0,100.689v151.69l10.979,3.465c1.399,0.441,140.309,45.286,183.227,145.922l4.071,9.545h115.445l4.071-9.545    c42.808-100.379,181.839-145.482,183.227-145.922l10.979-3.465v-151.69H0z M111.11,269.089c-2.722-1.697-5.474-3.38-8.274-5.036    c-29.956-17.731-56.982-28.904-71.424-34.306v-32.134h115.871C148.193,216.376,144.888,251.4,111.11,269.089z M293.284,379.898    h-74.568c-16.39-33.267-43.397-64.313-79.396-91.474c19.488-14.451,32.176-35.227,37.142-61.246    c2.099-10.995,2.461-21.297,2.174-29.563h154.728c-0.287,8.268,0.074,18.569,2.174,29.563    c4.966,26.019,17.654,46.795,37.142,61.246C336.682,315.586,309.674,346.631,293.284,379.898z M480.588,229.747    c-14.441,5.402-41.468,16.574-71.425,34.306c-2.8,1.658-5.552,3.34-8.274,5.036c-33.777-17.688-37.083-52.713-36.173-71.476    h115.871V229.747z M480.588,166.2H31.413v-34.099h449.175V166.2z"/>
	</g>
</g>
<g>
</g>
<g>
</g>
<g>
</g>
<g>
</g>
<g>
</g>
<g>
</g>
<g>
</g>
<g>
</g>
<g>
</g>
<g>
</g>
<g>
</g>
<g>
</g>
<g>
</g>
<g>
</g>
<g>
</g>
</svg>
