<?xml version="1.0" encoding="iso-8859-1"?>
<!-- Generator: Adobe Illustrator 19.0.0, SVG Export Plug-In . SVG Version: 6.00 Build 0)  -->
<svg xmlns="http://www.w3.org/2000/svg" xmlns:xlink="http://www.w3.org/1999/xlink" version="1.1" id="Layer_1" x="0px" y="0px" viewBox="0 0 511.999 511.999" style="enable-background:new 0 0 511.999 511.999;" xml:space="preserve">
<g>
	<g>
		<path d="M495.73,76.495V0.517H128.118v75.979l-16.271,91.948v49.464L0,271.132l111.603,239.823l0.244-0.114v0.64h181.499    l0.996-14.575c0.032-0.48,3.342-48.504,9.023-99.151c3.045-27.147,5.94-47.762,8.558-63.423    c2.615,15.643,5.506,36.228,8.547,63.327c5.684,50.65,9.002,98.766,9.035,99.247l0.997,14.575h181.498V168.444L495.73,76.495z     M111.848,437.332l-70.399-151.28l70.399-33.501V437.332z M476.892,149.575c-14.091-8.623-25.307-21.329-33.465-38.012    c-3.563-7.287-6.027-14.338-7.717-20.312h30.86L476.892,149.575z M157.278,91.25h29.32v0.001    c-1.689,5.974-4.153,13.026-7.717,20.312c-7.819,15.988-18.454,28.314-31.729,36.904L157.278,91.25z M296.282,271.714    c-6.591,12.293-14.821,40.793-23.974,122.281c-3.875,34.492-6.665,67.838-8.093,86.202H143.132V185.45    c28.25-10.967,50.373-31.946,64.4-61.274c5.957-12.455,9.382-24.234,11.322-32.925h77.429V271.714z M296.282,59.967H159.401    V31.801h305.045v28.167h-136.88H296.282z M480.716,480.197H359.632v0.001c-1.428-18.363-4.218-51.711-8.093-86.202    c-9.153-81.489-17.382-109.988-23.974-122.281V91.251h75.89c1.941,8.691,5.365,20.47,11.322,32.925    c14.281,29.859,36.952,51.066,65.939,61.861V480.197z"/>
	</g>
</g>
<g>
</g>
<g>
</g>
<g>
</g>
<g>
</g>
<g>
</g>
<g>
</g>
<g>
</g>
<g>
</g>
<g>
</g>
<g>
</g>
<g>
</g>
<g>
</g>
<g>
</g>
<g>
</g>
<g>
</g>
</svg>
