<?xml version="1.0" encoding="iso-8859-1"?>
<!-- Generator: Adobe Illustrator 19.0.0, SVG Export Plug-In . SVG Version: 6.00 Build 0)  -->
<svg xmlns="http://www.w3.org/2000/svg" xmlns:xlink="http://www.w3.org/1999/xlink" version="1.1" id="Layer_1" x="0px" y="0px" viewBox="0 0 512 512" style="enable-background:new 0 0 512 512;" xml:space="preserve">
<g>
	<g>
		<path d="M468.743,86.617V0H43.257v86.62L24.19,194.368V512h207.009l1.494-14.011c0.039-0.359,3.906-36.355,10.55-75.611    c4.635-27.385,8.976-46.829,12.755-60.631c3.773,13.777,8.104,33.177,12.731,60.485c6.651,39.264,10.537,75.397,10.575,75.757    L280.802,512H487.81V194.368L468.743,86.617z M452.933,177.173c-19.361-10.342-34.545-26.641-45.291-48.687    c-4.902-10.057-8.05-19.727-10.048-27.469h41.862L452.933,177.173z M72.543,101.015h40.076    c-5.367,20.763-19.154,55.523-53.344,74.984L72.543,101.015z M203.151,480.653H55.537v-33.797h152.14    C205.714,460.351,204.19,472.154,203.151,480.653z M240.327,315.492c-5.78,9.406-16.252,32.946-27.71,100.017H55.537V212.233    c33.278-12.42,59.315-36.8,75.73-71.122c7.379-15.427,11.388-29.931,13.527-40.096h95.532V315.492z M240.327,69.669H74.604V31.347    h362.793v38.322H271.673H240.327z M271.673,315.492V101.015h93.728c2.138,10.165,6.148,24.668,13.526,40.096    c16.711,34.939,43.393,59.575,77.534,71.779v202.618H299.384C287.927,348.438,277.455,324.898,271.673,315.492z M456.462,480.653    H308.849c-1.039-8.499-2.563-20.302-4.527-33.797h152.139V480.653z"/>
	</g>
</g>
<g>
</g>
<g>
</g>
<g>
</g>
<g>
</g>
<g>
</g>
<g>
</g>
<g>
</g>
<g>
</g>
<g>
</g>
<g>
</g>
<g>
</g>
<g>
</g>
<g>
</g>
<g>
</g>
<g>
</g>
</svg>
