<?xml version="1.0" encoding="iso-8859-1"?>
<!-- Generator: Adobe Illustrator 19.0.0, SVG Export Plug-In . SVG Version: 6.00 Build 0)  -->
<svg xmlns="http://www.w3.org/2000/svg" xmlns:xlink="http://www.w3.org/1999/xlink" version="1.1" id="Layer_1" x="0px" y="0px" viewBox="0 0 511.999 511.999" style="enable-background:new 0 0 511.999 511.999;" xml:space="preserve">
<g>
	<g>
		<path d="M490.797,135.44V49.086H21.202v86.352L0,243.05v219.862h212.752l10.982-0.007l3.738-10.324    c0.135-0.372,11.327-30.981,28.526-57.297c17.201,26.317,28.392,56.923,28.524,57.29l3.732,10.339h223.745V243.05L490.797,135.44z     M476.992,227.318c-23.415-10.327-41.599-27.216-54.217-50.417c-5.353-9.843-8.815-19.307-11.03-26.929h50.009L476.992,227.318z     M50.247,149.972h50.009c-2.215,7.623-5.677,17.086-11.03,26.929c-12.619,23.201-30.802,40.09-54.217,50.417L50.247,149.972z     M240.346,363.443c-18.316,23.122-31.867,52.732-38.256,68.162H31.306V262.1c47.394-14.956,72.884-46.688,86.087-71.481    c8.336-15.652,12.833-30.39,15.212-40.647h107.741V363.443z M240.346,118.665H52.508V80.393h406.983v38.272H271.653H240.346z     M480.693,431.605H309.91c-6.391-15.43-19.94-45.041-38.257-68.162V149.972h107.741c2.378,10.257,6.877,24.995,15.212,40.647    c13.203,24.793,38.694,56.525,86.087,71.481V431.605z"/>
	</g>
</g>
<g>
</g>
<g>
</g>
<g>
</g>
<g>
</g>
<g>
</g>
<g>
</g>
<g>
</g>
<g>
</g>
<g>
</g>
<g>
</g>
<g>
</g>
<g>
</g>
<g>
</g>
<g>
</g>
<g>
</g>
</svg>
