<?xml version="1.0" encoding="iso-8859-1"?>
<!-- Generator: Adobe Illustrator 19.0.0, SVG Export Plug-In . SVG Version: 6.00 Build 0)  -->
<svg xmlns="http://www.w3.org/2000/svg" xmlns:xlink="http://www.w3.org/1999/xlink" version="1.1" id="Layer_1" x="0px" y="0px" viewBox="0 0 512 512" style="enable-background:new 0 0 512 512;" xml:space="preserve">
<g>
	<g>
		<path d="M399.086,84.039l-0.002,0.001v-0.111l-58.302-23.216c-1.441-3.412-2.985-6.409-4.447-8.945    c-0.606-1.045-1.191-2.006-1.755-2.894l-0.01-0.01l-5.161-6.791l-0.334-0.439c-0.919-1.202-23.048-29.505-73.073-29.505    c-49.847,0-72.655,28.074-73.606,29.275l-0.627,0.784l-5.287,6.687c-0.554,0.857-1.118,1.797-1.693,2.8    c-1.566,2.684-3.217,5.89-4.741,9.576l-57.13,22.665v0.125l-0.002-0.001L0,385.875l93.812,41.219l19.105-50.744v75.378h13.521    v48.143h259.123v-48.143h13.521V376.35l19.105,50.744L512,385.875L399.086,84.039z M112.917,287.394l-36.782,97.697L39.74,369.099    l73.177-195.609V287.394z M307.038,121.456c-2.299,4.054-5.109,6.331-9.121,7.397c-6.676,1.787-15.296-0.021-22.609-2.549    l38.731-47.308C316.754,89.275,316.995,103.934,307.038,121.456z M255.999,43.471c18.493,0,31.051,5.005,38.72,9.643    l-38.793,47.371l-39.18-47.288C224.593,48.528,237.402,43.471,255.999,43.471z M196.937,79.475    c0.073-0.272,0.146-0.543,0.219-0.805l39.274,47.402c-7.617,2.685-16.56,4.566-23.247,2.8c-4.043-1.066-6.864-3.354-9.173-7.418    C195.819,107.047,193.437,92.922,196.937,79.475z M144.261,105.199l19.86-7.879c0.846,11.858,4.451,25.211,12.632,39.619    c6.446,11.346,16.278,19.036,28.439,22.244c4.597,1.212,9.267,1.714,13.885,1.714c7.458,0,14.738-1.331,21.251-3.164v262.652    h-96.067V105.199z M354.218,468.527H157.782v-16.798h196.436V468.527z M367.739,420.384h-96.067V158    c6.267,1.696,13.209,2.896,20.3,2.896c4.618,0,9.299-0.502,13.896-1.714c12.151-3.208,21.983-10.897,28.429-22.244    c8.275-14.575,11.869-28.063,12.663-40.026c0-0.001,0-0.002,0-0.003l20.779,8.274V420.384z M399.082,287.393V173.489    l73.177,195.609l-36.393,15.992L399.082,287.393z"/>
	</g>
</g>
<g>
	<g>
		
			<rect x="304.327" y="322.454" transform="matrix(0.4959 -0.8684 0.8684 0.4959 -143.8681 455.0448)" width="31.343" height="57.966"/>
	</g>
</g>
<g>
	<g>
		
			<rect x="163.192" y="335.788" transform="matrix(0.8684 -0.4959 0.4959 0.8684 -148.9927 141.5555)" width="57.966" height="31.343"/>
	</g>
</g>
<g>
</g>
<g>
</g>
<g>
</g>
<g>
</g>
<g>
</g>
<g>
</g>
<g>
</g>
<g>
</g>
<g>
</g>
<g>
</g>
<g>
</g>
<g>
</g>
<g>
</g>
<g>
</g>
<g>
</g>
</svg>
