<?xml version="1.0" encoding="iso-8859-1"?>
<!-- Generator: Adobe Illustrator 19.0.0, SVG Export Plug-In . SVG Version: 6.00 Build 0)  -->
<svg xmlns="http://www.w3.org/2000/svg" xmlns:xlink="http://www.w3.org/1999/xlink" version="1.1" id="Layer_1" x="0px" y="0px" viewBox="0 0 512 512" style="enable-background:new 0 0 512 512;" xml:space="preserve">
<g>
	<g>
		<path d="M399.086,138.585l-0.631,0.236l-43.769-20.387c-0.962-15.873-6.173-58.825-34.268-87.005    c-17.003-17.055-39.028-25.704-65.462-25.704c-26.433,0-48.459,8.648-65.462,25.704c-30.464,30.556-34.023,78.485-34.432,90.421    l-42.144,16.578v0.159l-0.002-0.001L0,440.42l93.812,41.221l19.104-50.743v75.377h286.166v-75.377l19.104,50.743L512,440.42    L399.086,138.585z M112.917,341.94l-36.782,97.697l-36.393-15.992l73.176-195.61V341.94z M240.328,474.931H144.26V159.779    l23.373-9.194c0.835,0.81,1.736,1.662,2.692,2.545v53.369h31.344v-30.836c11.142,6.007,24.164,11.055,38.658,13.266V474.931z     M185.881,124.443l0.47-0.001c-0.001-0.453,0.556-46.026,25.338-70.883c11.062-11.096,25.215-16.49,43.265-16.49    c67.35,0,68.587,82.961,68.604,87.299c-9.848,10.568-35.618,34.42-67.559,34.42C220.94,158.787,193.417,132.431,185.881,124.443z     M367.74,474.932h-96.067V188.853c14.194-2.301,26.969-7.499,37.961-13.723v31.37h31.344v-55.1    c1.164-1.134,2.257-2.226,3.257-3.258l23.506,10.949V474.932z M399.083,341.941V228.036l73.176,195.61l-36.393,15.992    L399.083,341.941z"/>
	</g>
</g>
<g>
	<g>
		
			<rect x="159.941" y="377.504" transform="matrix(0.8921 -0.4518 0.4518 0.8921 -157.1419 128.2612)" width="60.117" height="31.343"/>
	</g>
</g>
<g>
	<g>
		
			<rect x="305.178" y="363.126" transform="matrix(0.4518 -0.8921 0.8921 0.4518 -174.8786 501.7759)" width="31.343" height="60.117"/>
	</g>
</g>
<g>
</g>
<g>
</g>
<g>
</g>
<g>
</g>
<g>
</g>
<g>
</g>
<g>
</g>
<g>
</g>
<g>
</g>
<g>
</g>
<g>
</g>
<g>
</g>
<g>
</g>
<g>
</g>
<g>
</g>
</svg>
