<?xml version="1.0" encoding="iso-8859-1"?>
<!-- Generator: Adobe Illustrator 19.0.0, SVG Export Plug-In . SVG Version: 6.00 Build 0)  -->
<svg xmlns="http://www.w3.org/2000/svg" xmlns:xlink="http://www.w3.org/1999/xlink" version="1.1" id="Layer_1" x="0px" y="0px" viewBox="0 0 512 512" style="enable-background:new 0 0 512 512;" xml:space="preserve">
<g>
	<g>
		<path d="M446.42,217.333c-28.542-20.026-41.358-61.053-46.456-83.725c-2.682-11.926-4.041-24.383-4.041-37.024V0h-85.857v83.281    c0,17.777-5.606,31.698-17.139,42.56c-20.708,19.503-53.147,19.502-73.854,0c-11.533-10.862-17.139-24.784-17.139-42.56V0h-85.857    v94.676c0,21.693-3.373,42.645-10.024,62.273c-9.342,27.569-22.995,47.909-40.576,60.458l-6.609,4.717V512h394.266V222.043    L446.42,217.333z M90.407,237.987c19.84-16.461,35.131-40.273,45.516-70.916c7.759-22.895,11.693-47.252,11.693-72.396V31.54    h22.777v51.741c0,26.193,9.355,48.849,27.054,65.52c11.128,10.481,24.396,17.398,38.351,20.773v156.172    c-0.178,3.3-2.653,41.573-23.022,78.881c-25.168,46.097-66.296,71.36-122.369,75.279V237.987z M186.479,480.46    c26.053-17.899,43.294-40.846,54.574-61.815c4.115-7.648,7.584-15.284,10.515-22.704c2.93,7.419,6.401,15.055,10.514,22.704    c11.281,20.969,28.522,43.917,54.575,61.815H186.479z M421.592,480.35c-60.621-1.783-104.756-27.229-131.233-75.722    c-20.38-37.328-22.847-75.619-23.021-78.853v-154.54c17.156-2.28,33.749-9.751,47.212-22.432    c17.699-16.669,27.054-39.326,27.054-65.52V31.54h22.777v65.044c0,14.965,1.618,29.749,4.809,43.944    c6.961,30.95,21.652,72.003,52.402,97.497V480.35z"/>
	</g>
</g>
<g>
	<g>
		<rect x="287.886" y="204.306" width="19.274" height="19.274"/>
	</g>
</g>
<g>
	<g>
		<rect x="287.886" y="250.922" width="19.274" height="19.274"/>
	</g>
</g>
<g>
	<g>
		<rect x="287.886" y="297.528" width="19.274" height="19.274"/>
	</g>
</g>
<g>
	<g>
		<rect x="115.751" y="348.192" width="83.581" height="31.54"/>
	</g>
</g>
<g>
	<g>
		<rect x="314.527" y="348.192" width="83.581" height="31.54"/>
	</g>
</g>
<g>
</g>
<g>
</g>
<g>
</g>
<g>
</g>
<g>
</g>
<g>
</g>
<g>
</g>
<g>
</g>
<g>
</g>
<g>
</g>
<g>
</g>
<g>
</g>
<g>
</g>
<g>
</g>
<g>
</g>
</svg>
