<?xml version="1.0" encoding="iso-8859-1"?>
<!-- Generator: Adobe Illustrator 19.0.0, SVG Export Plug-In . SVG Version: 6.00 Build 0)  -->
<svg xmlns="http://www.w3.org/2000/svg" xmlns:xlink="http://www.w3.org/1999/xlink" version="1.1" id="Layer_1" x="0px" y="0px" viewBox="0 0 512 512" style="enable-background:new 0 0 512 512;" xml:space="preserve">
<g>
	<g>
		<path d="M446.418,217.333c-28.543-20.027-41.357-61.053-46.456-83.726c-2.681-11.923-4.041-24.378-4.041-37.023V0h-85.856v39.206    c-5.201,8.391-22.519,31.764-54.066,31.764c-31.547,0-48.865-23.374-54.066-31.764V0h-85.856v94.676    c0,21.693-3.373,42.645-10.024,62.273c-9.342,27.569-22.995,47.909-40.576,60.458l-6.609,4.717V512h394.266V222.043    L446.418,217.333z M255.997,102.511c22.968,0,40.813-7.985,54.035-17.708c-0.315,17.046-5.91,30.491-17.108,41.039    c-20.707,19.502-53.148,19.502-73.854,0c-11.2-10.548-16.794-23.992-17.108-41.039    C215.185,94.527,233.029,102.511,255.997,102.511z M90.405,237.987c19.84-16.461,35.132-40.273,45.516-70.916    c7.759-22.895,11.693-47.252,11.693-72.396V31.54h22.776v51.741c0,26.193,9.355,48.849,27.054,65.52    c32.833,30.923,84.271,30.923,117.104,0c17.698-16.67,27.054-39.327,27.054-65.52V31.54h22.776v65.044    c0,14.968,1.618,29.753,4.81,43.943c6.96,30.95,21.65,72.002,52.4,97.497V417.38H90.405V237.987z M421.591,480.46H90.405v-31.54    h331.186V480.46z"/>
	</g>
</g>
<g>
</g>
<g>
</g>
<g>
</g>
<g>
</g>
<g>
</g>
<g>
</g>
<g>
</g>
<g>
</g>
<g>
</g>
<g>
</g>
<g>
</g>
<g>
</g>
<g>
</g>
<g>
</g>
<g>
</g>
</svg>
