<?xml version="1.0" encoding="iso-8859-1"?>
<!-- Generator: Adobe Illustrator 19.0.0, SVG Export Plug-In . SVG Version: 6.00 Build 0)  -->
<svg xmlns="http://www.w3.org/2000/svg" xmlns:xlink="http://www.w3.org/1999/xlink" version="1.1" id="Layer_1" x="0px" y="0px" viewBox="0 0 512 512" style="enable-background:new 0 0 512 512;" xml:space="preserve">
<g>
	<g>
		<path d="M399.086,90.919l-0.002,0.001V90.81l-93.967-37.418h-97.917l-94.28,37.403v0.125l-0.002-0.001L0,392.755l93.812,41.219    l19.105-50.744v75.378h286.166v-75.378l19.105,50.744L512,392.755L399.086,90.919z M112.917,294.275l-36.782,97.697L39.74,375.98    l73.177-195.609V294.275z M240.329,427.265h-96.067V112.081l40.722-16.156l55.345,154.123V427.265z M214.268,84.736h83.463    l-41.731,116.213L214.268,84.736z M367.739,427.266h-96.067V250.049L327.039,95.86l40.699,16.206V427.266z M399.082,294.275    V180.371l73.177,195.609l-36.393,15.992L399.082,294.275z"/>
	</g>
</g>
<g>
	<g>
		<rect x="292.585" y="329.311" width="54.852" height="31.344"/>
	</g>
</g>
<g>
	<g>
		<rect x="164.566" y="329.311" width="54.852" height="31.344"/>
	</g>
</g>
<g>
</g>
<g>
</g>
<g>
</g>
<g>
</g>
<g>
</g>
<g>
</g>
<g>
</g>
<g>
</g>
<g>
</g>
<g>
</g>
<g>
</g>
<g>
</g>
<g>
</g>
<g>
</g>
<g>
</g>
</svg>
