<?xml version="1.0" encoding="iso-8859-1"?>
<!-- Generator: Adobe Illustrator 19.0.0, SVG Export Plug-In . SVG Version: 6.00 Build 0)  -->
<svg xmlns="http://www.w3.org/2000/svg" xmlns:xlink="http://www.w3.org/1999/xlink" version="1.1" id="Layer_1" x="0px" y="0px" viewBox="0 0 512 512" style="enable-background:new 0 0 512 512;" xml:space="preserve">
<g>
	<g>
		<path d="M399.086,90.919l-0.002,0.001V90.81l-93.967-37.417h-97.919l-94.28,37.403v0.125l-0.002-0.001L0,392.754l93.812,41.219    l19.104-50.743v75.377h286.166v-75.376l19.104,50.743L512,392.754L399.086,90.919z M112.917,294.275L76.134,391.97l-36.393-15.992    l73.176-195.609V294.275z M240.328,427.264H144.26V112.08l49.25-19.539l46.817,46.047V427.264z M230.273,84.735h51.453    l-25.727,25.304L230.273,84.735z M367.741,427.265h-0.001h-96.067V138.589l46.881-46.11l49.187,19.586V427.265z M399.083,294.274    V180.37l73.176,195.609l-36.393,15.992L399.083,294.274z"/>
	</g>
</g>
<g>
	<g>
		<rect x="292.585" y="171.89" width="54.852" height="31.344"/>
	</g>
</g>
<g>
</g>
<g>
</g>
<g>
</g>
<g>
</g>
<g>
</g>
<g>
</g>
<g>
</g>
<g>
</g>
<g>
</g>
<g>
</g>
<g>
</g>
<g>
</g>
<g>
</g>
<g>
</g>
<g>
</g>
</svg>
