<?xml version="1.0" encoding="iso-8859-1"?>
<!-- Generator: Adobe Illustrator 19.0.0, SVG Export Plug-In . SVG Version: 6.00 Build 0)  -->
<svg xmlns="http://www.w3.org/2000/svg" xmlns:xlink="http://www.w3.org/1999/xlink" version="1.1" id="Layer_1" x="0px" y="0px" viewBox="0 0 512 512" style="enable-background:new 0 0 512 512;" xml:space="preserve">
<g>
	<g>
		<path d="M399.086,90.919l-0.002,0.001V90.81l-93.967-37.417h-97.919l-94.28,37.403v0.125l-0.002-0.001L0,392.754l93.812,41.219    l19.104-50.743v75.377h286.166v-75.376l19.104,50.743L512,392.754L399.086,90.919z M112.917,294.275L76.134,391.97l-36.393-15.992    l73.176-195.609V294.275z M290.382,84.735c-0.863,2.455-1.968,5.091-3.401,7.706c-6.461,11.794-15.837,17.286-29.508,17.286    c-13.516,0-23.617-5.614-30.88-17.162c-1.661-2.64-2.994-5.319-4.061-7.831H290.382z M367.739,427.265H144.26v-23.432h223.478    V427.265z M367.741,372.489H144.26V112.08l47.86-18.986c1.721,4.603,4.061,9.78,7.222,14.998    c13.069,21.576,33.17,32.981,58.13,32.981c24.895,0,45.137-11.922,56.998-33.57c2.698-4.923,4.671-9.803,6.118-14.211    l47.152,18.775V372.489z M399.083,294.274V180.37l73.176,195.609l-36.393,15.992L399.083,294.274z"/>
	</g>
</g>
<g>
</g>
<g>
</g>
<g>
</g>
<g>
</g>
<g>
</g>
<g>
</g>
<g>
</g>
<g>
</g>
<g>
</g>
<g>
</g>
<g>
</g>
<g>
</g>
<g>
</g>
<g>
</g>
<g>
</g>
</svg>
