<?xml version="1.0" encoding="iso-8859-1"?>
<!-- Generator: Adobe Illustrator 19.0.0, SVG Export Plug-In . SVG Version: 6.00 Build 0)  -->
<svg xmlns="http://www.w3.org/2000/svg" xmlns:xlink="http://www.w3.org/1999/xlink" version="1.1" id="Layer_1" x="0px" y="0px" viewBox="0 0 512 512" style="enable-background:new 0 0 512 512;" xml:space="preserve">
<g>
	<g>
		<path d="M405.795,82.937l-0.19-0.222l-0.285-0.116l-97.791-38.945H204.851L106.68,82.599l-0.296,0.116l-0.127,0.148L0,207.596    l86.241,83.106l20.016-20.523v198.168h299.538V270.242l19.964,20.46L512,207.596L405.795,82.937z M106.258,224.825l-20.703,21.22    l-42.123-40.592l62.826-73.752V224.825z M240.164,436.675H137.929V104.283l52.965-21.019l0.002-0.001l49.268,53.631V436.675z     M226.61,75.325h58.779L256,107.317L226.61,75.325z M374.124,436.675H271.836V136.895l49.345-53.716l52.943,21.083V436.675z     M405.795,224.878v-93.114l62.773,73.689l-42.123,40.592L405.795,224.878z"/>
	</g>
</g>
<g>
</g>
<g>
</g>
<g>
</g>
<g>
</g>
<g>
</g>
<g>
</g>
<g>
</g>
<g>
</g>
<g>
</g>
<g>
</g>
<g>
</g>
<g>
</g>
<g>
</g>
<g>
</g>
<g>
</g>
</svg>
