<?xml version="1.0" encoding="iso-8859-1"?>
<!-- Generator: Adobe Illustrator 19.0.0, SVG Export Plug-In . SVG Version: 6.00 Build 0)  -->
<svg xmlns="http://www.w3.org/2000/svg" xmlns:xlink="http://www.w3.org/1999/xlink" version="1.1" id="Layer_1" x="0px" y="0px" viewBox="0 0 512 512" style="enable-background:new 0 0 512 512;" xml:space="preserve">
<g>
	<g>
		<path d="M405.797,82.926l-0.082-0.094l-0.102-0.123l-0.168-0.06l-0.121-0.055l-97.788-38.94H204.847l-98.166,38.944l-0.135,0.051    l-0.166,0.069l-0.062,0.068l-0.063,0.08L0,207.592l86.237,83.105l20.017-20.517v198.166h299.543V270.232l19.966,20.464    L512,207.592L405.797,82.926z M106.254,224.824l-20.706,21.224l-42.122-40.593l62.828-73.751V224.824z M285.386,75.326    L256,107.315l-29.387-31.989H285.386z M374.125,436.673H137.926v-31.672h236.199V436.673z M374.126,373.329H137.927V104.275    l52.969-21.014l49.268,53.631v56.818h31.672v-56.818l49.345-53.715l52.945,21.083V373.329z M405.798,224.877v-93.11l62.776,73.689    l-42.122,40.592L405.798,224.877z"/>
	</g>
</g>
<g>
</g>
<g>
</g>
<g>
</g>
<g>
</g>
<g>
</g>
<g>
</g>
<g>
</g>
<g>
</g>
<g>
</g>
<g>
</g>
<g>
</g>
<g>
</g>
<g>
</g>
<g>
</g>
<g>
</g>
</svg>
