<?xml version="1.0" encoding="iso-8859-1"?>
<!-- Generator: Adobe Illustrator 19.0.0, SVG Export Plug-In . SVG Version: 6.00 Build 0)  -->
<svg xmlns="http://www.w3.org/2000/svg" xmlns:xlink="http://www.w3.org/1999/xlink" version="1.1" id="Layer_1" x="0px" y="0px" viewBox="0 0 512 512" style="enable-background:new 0 0 512 512;" xml:space="preserve">
<g>
	<g>
		<path d="M405.797,82.925l-0.082-0.116l-0.102-0.101l-0.17-0.06l-0.118-0.055l-97.789-38.939H204.847l-98.166,38.944l-0.301,0.119    l-0.062,0.08l-0.063,0.068L0,207.592l86.237,83.105l20.017-20.517v198.166h299.543V270.232l19.966,20.464L512,207.592    L405.797,82.925z M106.254,224.824l-20.706,21.223l-42.122-40.592l62.828-73.751V224.824z M297.804,75.326    c-1.144,3.466-2.715,7.316-4.866,11.098c-7.68,13.505-19.159,20.069-35.093,20.069c-16.241,0-28.369-6.76-37.076-20.667    c-2.234-3.567-3.963-7.19-5.29-10.5H297.804z M374.125,436.673H137.926v-31.672h236.199V436.673z M374.125,373.328H137.926    V104.275l47.488-18.84c1.897,4.964,4.434,10.487,7.808,16.058c14.532,23.99,36.879,36.671,64.622,36.671    c27.643,0,50.119-13.236,63.284-37.267c2.86-5.222,4.995-10.398,6.587-15.118l46.41,18.481V373.328z M405.797,224.877v-93.111    l62.776,73.69l-42.122,40.592L405.797,224.877z"/>
	</g>
</g>
<g>
</g>
<g>
</g>
<g>
</g>
<g>
</g>
<g>
</g>
<g>
</g>
<g>
</g>
<g>
</g>
<g>
</g>
<g>
</g>
<g>
</g>
<g>
</g>
<g>
</g>
<g>
</g>
<g>
</g>
</svg>
